<svg width="804" height="410" viewBox="0 0 804 410" fill="none" xmlns="http://www.w3.org/2000/svg">
<path d="M14.8341 57.2754H8.40057C8.11932 57.2754 7.83809 57.1523 7.62716 56.9414C7.4338 56.7304 7.32831 56.4492 7.34589 56.1679L10.2287 1.1134C10.2638 0.550904 10.7209 0.11145 11.2834 0.11145C11.8459 0.11145 12.3029 0.550898 12.338 1.09582L15.8888 56.1504C15.9064 56.4492 15.8009 56.7304 15.6076 56.9414C15.4142 57.1523 15.133 57.2754 14.8341 57.2754ZM9.50799 55.166H13.7091L11.3888 19.2364L9.50799 55.166Z" fill="#0292FF"/>
<path d="M19.4924 68.8245H3.72479C3.14471 68.8245 2.6701 68.3499 2.6701 67.7698V55.553C2.6701 54.9729 3.14471 54.4983 3.72479 54.4983H19.4924C20.0725 54.4983 20.5471 54.9729 20.5471 55.553V67.7698C20.5471 68.3499 20.09 68.8245 19.4924 68.8245ZM4.79705 66.7151H18.4553V56.6077H4.79705V66.7151Z" fill="#0292FF"/>
<path d="M28.5978 81.0234H-5.3631C-5.94318 81.0234 -6.41779 80.5488 -6.41779 79.9687C-6.41779 70.7051 1.12322 63.1465 10.4045 63.1465H12.8478C22.1115 63.1465 29.6701 70.6875 29.6701 79.9687C29.6525 80.5664 29.1779 81.0234 28.5978 81.0234ZM-4.27326 78.914H27.508C26.9631 71.3027 20.5998 65.2559 12.8478 65.2559H10.4045C2.65251 65.2734 -3.72834 71.3027 -4.27326 78.914Z" fill="#0292FF"/>
<path d="M30.9357 120.1H-7.68343C-8.15804 120.1 -8.5799 119.783 -8.70295 119.309L-19.3553 79.3535C-19.4432 79.0371 -19.3729 78.7031 -19.1795 78.4395C-18.9861 78.1758 -18.6698 78.0352 -18.3358 78.0352H41.6057C41.9396 78.0352 42.2384 78.1934 42.4494 78.4395C42.6427 78.7031 42.713 79.0371 42.6252 79.3535L31.9728 119.309C31.8322 119.783 31.4103 120.1 30.9357 120.1ZM-6.87482 117.99H30.1271L40.217 80.1445H-16.9647L-6.87482 117.99ZM29.5646 114.053H-6.34748C-6.92755 114.053 -7.40216 113.578 -7.40216 112.998V109.676C-7.40216 109.096 -6.92755 108.621 -6.34748 108.621H29.5646C30.1447 108.621 30.6193 109.096 30.6193 109.676V112.998C30.6193 113.578 30.1623 114.053 29.5646 114.053ZM-5.27522 111.943H28.5275V110.73H-5.27522V111.943ZM31.9904 105.65H-8.73812C-9.3182 105.65 -9.79281 105.176 -9.79281 104.596V101.273C-9.79281 100.693 -9.3182 100.219 -8.73812 100.219H31.9904C32.5705 100.219 33.0451 100.693 33.0451 101.273V104.596C33.0451 105.176 32.5705 105.65 31.9904 105.65ZM-7.701 103.541H30.9181V102.328H-7.701V103.541ZM34.2404 97.2305H-10.9881C-11.5682 97.2305 -12.0428 96.7558 -12.0428 96.1758V92.8535C-12.0428 92.2734 -11.5682 91.7988 -10.9881 91.7988H34.2404C34.8205 91.7988 35.2951 92.2734 35.2951 92.8535V96.1758C35.2951 96.7558 34.8205 97.2305 34.2404 97.2305ZM-9.93342 95.1211H33.1857V93.9082H-9.93342V95.1211ZM36.1564 88.582H-12.9041C-13.4842 88.582 -13.9588 88.1074 -13.9588 87.5273V84.1875C-13.9588 83.6074 -13.4842 83.1328 -12.9041 83.1328H36.1564C36.7365 83.1328 37.2111 83.6074 37.2111 84.1875V87.5098C37.2111 88.1074 36.7365 88.582 36.1564 88.582ZM-11.8494 86.4727H35.1017V85.2598H-11.8494V86.4727Z" fill="#0292FF"/>
<path d="M19.7911 410.227H3.46113C3.17988 410.227 2.91623 410.122 2.70529 409.911C2.51193 409.717 2.38887 409.436 2.40645 409.155L5.06073 116.18C5.06073 115.6 5.53534 115.143 6.11541 115.143H17.1544C17.7345 115.143 18.2091 115.617 18.2091 116.18L20.8634 409.155C20.8634 409.436 20.7579 409.7 20.5646 409.911C20.3361 410.122 20.0724 410.227 19.7911 410.227ZM4.51582 408.118H18.7189L16.0822 117.252H7.13495L4.51582 408.118Z" fill="#0292FF"/>
<path d="M31.5333 350.479C31.3048 350.479 31.0938 350.409 30.9005 350.268L12.0919 336.012L-5.71465 349.828C-6.17168 350.18 -6.83965 350.11 -7.19122 349.635C-7.54278 349.178 -7.47247 348.51 -6.99786 348.158L11.4416 333.832C11.8107 333.533 12.338 333.533 12.7248 333.832L32.1837 348.563C32.6407 348.914 32.7462 349.582 32.3946 350.039C32.1661 350.338 31.8497 350.479 31.5333 350.479Z" fill="#0292FF"/>
<path d="M30.2853 338.402H-5.5213C-6.10138 338.402 -6.57599 337.928 -6.57599 337.348V330.281C-6.57599 329.701 -6.10138 329.227 -5.5213 329.227H30.2853C30.8654 329.227 31.34 329.701 31.34 330.281V337.365C31.34 337.928 30.8654 338.402 30.2853 338.402ZM-4.46661 336.293H29.2307V331.336H-4.46661V336.293Z" fill="#0292FF"/>
<path d="M65.9867 221.561H49.3222C48.7421 221.561 48.2675 221.086 48.2675 220.506V211.066C48.2675 210.486 48.7421 210.012 49.3222 210.012H65.9867C66.5668 210.012 67.0414 210.486 67.0414 211.066V220.506C67.0414 221.086 66.5844 221.561 65.9867 221.561ZM50.3945 219.451H64.9496V212.121H50.3945V219.451Z" fill="#0292FF"/>
<path d="M59.0605 212.121H56.2831C55.7031 212.121 55.2285 211.646 55.2285 211.066V174.152C55.2285 173.572 55.7031 173.098 56.2831 173.098H59.0605C59.6405 173.098 60.1151 173.572 60.1151 174.152V211.066C60.1151 211.646 59.6405 212.121 59.0605 212.121ZM57.3378 210.012H58.0058V175.207H57.3378V210.012Z" fill="#0292FF"/>
<path d="M71.1367 236.273H44.207C43.6269 236.273 43.1523 235.799 43.1523 235.219V220.225C43.1523 219.645 43.6269 219.17 44.207 219.17H71.1367C71.7168 219.17 72.1914 219.645 72.1914 220.225V235.219C72.1914 235.799 71.7168 236.273 71.1367 236.273ZM45.2617 234.164H70.082V221.28H45.2617V234.164Z" fill="#0292FF"/>
<path d="M75.4257 271.992H39.9006C39.3205 271.992 38.8459 271.518 38.8459 270.937V233.742C38.8459 233.162 39.3205 232.688 39.9006 232.688H75.4257C76.0058 232.688 76.4804 233.162 76.4804 233.742V270.937C76.4804 271.518 76.0234 271.992 75.4257 271.992ZM40.9552 269.883H74.371V234.797H40.9552V269.883Z" fill="#0292FF"/>
<path d="M79.5922 315.85H35.7346C35.1545 315.85 34.6799 315.375 34.6799 314.795V268.723C34.6799 268.143 35.1545 267.668 35.7346 267.668H79.5922C80.1723 267.668 80.6469 268.143 80.6469 268.723V314.795C80.6469 315.375 80.1723 315.85 79.5922 315.85ZM36.7893 313.74H78.5376V269.777H36.7893V313.74Z" fill="#0292FF"/>
<path d="M74.9516 284.121H65.7754C65.1953 284.121 64.7206 283.646 64.7206 283.066V273.891C64.7206 273.311 65.1953 272.836 65.7754 272.836H74.9516C75.5317 272.836 76.0063 273.311 76.0063 273.891V283.066C76.0063 283.646 75.5317 284.121 74.9516 284.121ZM66.8301 282.012H73.8968V274.945H66.8301V282.012Z" fill="#0292FF"/>
<path d="M62.5234 284.121H53.3476C52.7675 284.121 52.2929 283.646 52.2929 283.066V273.891C52.2929 273.311 52.7675 272.836 53.3476 272.836H62.5234C63.1035 272.836 63.5781 273.311 63.5781 273.891V283.066C63.5781 283.646 63.1211 284.121 62.5234 284.121ZM54.4023 282.012H61.4687V274.945H54.4023V282.012Z" fill="#0292FF"/>
<path d="M50.1132 284.121H40.9377C40.3576 284.121 39.883 283.646 39.883 283.066V273.891C39.883 273.311 40.3576 272.836 40.9377 272.836H50.1132C50.6933 272.836 51.1679 273.311 51.1679 273.891V283.066C51.1679 283.646 50.6933 284.121 50.1132 284.121ZM41.9923 282.012H49.0586V274.945H41.9923V282.012Z" fill="#0292FF"/>
<path d="M74.9516 296.355H65.7754C65.1953 296.355 64.7206 295.881 64.7206 295.301V286.125C64.7206 285.545 65.1953 285.07 65.7754 285.07H74.9516C75.5317 285.07 76.0063 285.545 76.0063 286.125V295.301C76.0063 295.881 75.5317 296.355 74.9516 296.355ZM66.8301 294.246H73.8968V287.18H66.8301V294.246Z" fill="#0292FF"/>
<path d="M62.5234 296.355H53.3476C52.7675 296.355 52.2929 295.881 52.2929 295.301V286.125C52.2929 285.545 52.7675 285.07 53.3476 285.07H62.5234C63.1035 285.07 63.5781 285.545 63.5781 286.125V295.301C63.5781 295.881 63.1211 296.355 62.5234 296.355ZM54.4023 294.246H61.4687V287.18H54.4023V294.246Z" fill="#0292FF"/>
<path d="M50.1132 296.355H40.9377C40.3576 296.355 39.883 295.881 39.883 295.301V286.125C39.883 285.545 40.3576 285.07 40.9377 285.07H50.1132C50.6933 285.07 51.1679 285.545 51.1679 286.125V295.301C51.1679 295.881 50.6933 296.355 50.1132 296.355ZM41.9923 294.246H49.0586V287.18H41.9923V294.246Z" fill="#0292FF"/>
<path d="M74.9516 308.59H65.7754C65.1953 308.59 64.7206 308.115 64.7206 307.535V298.359C64.7206 297.779 65.1953 297.305 65.7754 297.305H74.9516C75.5317 297.305 76.0063 297.779 76.0063 298.359V307.535C76.0063 308.115 75.5317 308.59 74.9516 308.59ZM66.8301 306.48H73.8968V299.414H66.8301V306.48Z" fill="#0292FF"/>
<path d="M62.5234 308.59H53.3476C52.7675 308.59 52.2929 308.115 52.2929 307.535V298.359C52.2929 297.779 52.7675 297.305 53.3476 297.305H62.5234C63.1035 297.305 63.5781 297.779 63.5781 298.359V307.535C63.5781 308.115 63.1211 308.59 62.5234 308.59ZM54.4023 306.48H61.4687V299.414H54.4023V306.48Z" fill="#0292FF"/>
<path d="M50.1132 308.59H40.9377C40.3576 308.59 39.883 308.115 39.883 307.535V298.359C39.883 297.779 40.3576 297.305 40.9377 297.305H50.1132C50.6933 297.305 51.1679 297.779 51.1679 298.359V307.535C51.1679 308.115 50.6933 308.59 50.1132 308.59ZM41.9923 306.48H49.0586V299.414H41.9923V306.48Z" fill="#0292FF"/>
<path d="M84.3203 410.227H31.0236C30.4435 410.227 29.9689 409.752 29.9689 409.172V310.348C29.9689 309.768 30.4435 309.293 31.0236 309.293H84.3203C84.9003 309.293 85.3749 309.768 85.3749 310.348V409.172C85.3749 409.752 84.9003 410.227 84.3203 410.227ZM32.0783 408.117H83.2656V311.402H32.0783V408.117Z" fill="#0292FF"/>
<path d="M68.289 229.805H62.559C61.9789 229.805 61.5043 229.33 61.5043 228.75V223.02C61.5043 222.439 61.9789 221.965 62.559 221.965H68.289C68.8691 221.965 69.3437 222.439 69.3437 223.02V228.75C69.3437 229.348 68.8691 229.805 68.289 229.805ZM63.6136 227.695H67.2344V224.074H63.6136V227.695Z" fill="#0292FF"/>
<path d="M60.5375 229.805H54.8071C54.227 229.805 53.7524 229.33 53.7524 228.75V223.02C53.7524 222.439 54.227 221.965 54.8071 221.965H60.5375C61.1176 221.965 61.5922 222.439 61.5922 223.02V228.75C61.5922 229.348 61.1176 229.805 60.5375 229.805ZM55.8618 227.695H59.4829V224.074H55.8618V227.695Z" fill="#0292FF"/>
<path d="M52.7855 229.805H47.0547C46.4746 229.805 45.9999 229.33 45.9999 228.75V223.02C45.9999 222.439 46.4746 221.965 47.0547 221.965H52.7855C53.3656 221.965 53.8403 222.439 53.8403 223.02V228.75C53.8403 229.348 53.3656 229.805 52.7855 229.805ZM48.1095 227.695H51.7308V224.074H48.1095V227.695Z" fill="#0292FF"/>
<path d="M70.7852 246.592H63.7015C63.1215 246.592 62.6469 246.117 62.6469 245.537V238.453C62.6469 237.873 63.1215 237.398 63.7015 237.398H70.7852C71.3652 237.398 71.8398 237.873 71.8398 238.453V245.537C71.8398 246.117 71.3652 246.592 70.7852 246.592ZM64.7562 244.482H69.7305V239.508H64.7562V244.482Z" fill="#0292FF"/>
<path d="M61.2051 246.592H54.1215C53.5414 246.592 53.0668 246.117 53.0668 245.537V238.453C53.0668 237.873 53.5414 237.398 54.1215 237.398H61.2051C61.7851 237.398 62.2597 237.873 62.2597 238.453V245.537C62.2597 246.117 61.7851 246.592 61.2051 246.592ZM55.1761 244.482H60.1504V239.508H55.1761V244.482Z" fill="#0292FF"/>
<path d="M51.625 246.592H44.5414C43.9613 246.592 43.4868 246.117 43.4868 245.537V238.453C43.4868 237.873 43.9613 237.398 44.5414 237.398H51.625C52.205 237.398 52.6796 237.873 52.6796 238.453V245.537C52.6796 246.117 52.205 246.592 51.625 246.592ZM45.6136 244.482H50.5879V239.508H45.6136V244.482Z" fill="#0292FF"/>
<path d="M70.7852 257.139H63.7015C63.1215 257.139 62.6469 256.664 62.6469 256.084V249C62.6469 248.42 63.1215 247.945 63.7015 247.945H70.7852C71.3652 247.945 71.8398 248.42 71.8398 249V256.084C71.8398 256.664 71.3652 257.139 70.7852 257.139ZM64.7562 255.029H69.7305V250.055H64.7562V255.029Z" fill="#0292FF"/>
<path d="M61.2051 257.139H54.1215C53.5414 257.139 53.0668 256.664 53.0668 256.084V249C53.0668 248.42 53.5414 247.945 54.1215 247.945H61.2051C61.7851 247.945 62.2597 248.42 62.2597 249V256.084C62.2597 256.664 61.7851 257.139 61.2051 257.139ZM55.1761 255.029H60.1504V250.055H55.1761V255.029Z" fill="#0292FF"/>
<path d="M51.625 257.139H44.5414C43.9613 257.139 43.4868 256.664 43.4868 256.084V249C43.4868 248.42 43.9613 247.945 44.5414 247.945H51.625C52.205 247.945 52.6796 248.42 52.6796 249V256.084C52.6796 256.664 52.205 257.139 51.625 257.139ZM45.6136 255.029H50.5879V250.055H45.6136V255.029Z" fill="#0292FF"/>
<path d="M70.7852 267.686H63.7015C63.1215 267.686 62.6469 267.211 62.6469 266.631V259.547C62.6469 258.967 63.1215 258.492 63.7015 258.492H70.7852C71.3652 258.492 71.8398 258.967 71.8398 259.547V266.631C71.8398 267.211 71.3652 267.686 70.7852 267.686ZM64.7562 265.576H69.7305V260.602H64.7562V265.576Z" fill="#0292FF"/>
<path d="M61.2051 267.686H54.1215C53.5414 267.686 53.0668 267.211 53.0668 266.631V259.547C53.0668 258.967 53.5414 258.492 54.1215 258.492H61.2051C61.7851 258.492 62.2597 258.967 62.2597 259.547V266.631C62.2597 267.211 61.7851 267.686 61.2051 267.686ZM55.1761 265.576H60.1504V260.602H55.1761V265.576Z" fill="#0292FF"/>
<path d="M51.625 267.686H44.5414C43.9613 267.686 43.4868 267.211 43.4868 266.631V259.547C43.4868 258.967 43.9613 258.492 44.5414 258.492H51.625C52.205 258.492 52.6796 258.967 52.6796 259.547V266.631C52.6796 267.211 52.205 267.686 51.625 267.686ZM45.6136 265.576H50.5879V260.602H45.6136V265.576Z" fill="#0292FF"/>
<path d="M77.9922 329.807H67.0238C66.4438 329.807 65.9692 329.332 65.9692 328.752V317.783C65.9692 317.203 66.4438 316.728 67.0238 316.728H77.9922C78.5722 316.728 79.0468 317.203 79.0468 317.783V328.752C79.0468 329.35 78.5898 329.807 77.9922 329.807ZM68.0785 327.697H76.9375V318.838H68.0785V327.697Z" fill="#0292FF"/>
<path d="M63.1567 329.807H52.1879C51.6078 329.807 51.1332 329.332 51.1332 328.752V317.783C51.1332 317.203 51.6078 316.728 52.1879 316.728H63.1567C63.7368 316.728 64.2114 317.203 64.2114 317.783V328.752C64.2114 329.35 63.7368 329.807 63.1567 329.807ZM53.2426 327.697H62.102V318.838H53.2426V327.697Z" fill="#0292FF"/>
<path d="M48.3031 329.807H37.3342C36.7541 329.807 36.2795 329.332 36.2795 328.752V317.783C36.2795 317.203 36.7541 316.728 37.3342 316.728H48.3031C48.8832 316.728 49.3578 317.203 49.3578 317.783V328.752C49.3578 329.35 48.8832 329.807 48.3031 329.807ZM38.3889 327.697H47.2484V318.838H38.3889V327.697Z" fill="#0292FF"/>
<path d="M77.9922 344.449H67.0238C66.4438 344.449 65.9692 343.975 65.9692 343.395V332.426C65.9692 331.846 66.4438 331.371 67.0238 331.371H77.9922C78.5722 331.371 79.0468 331.846 79.0468 332.426V343.395C79.0468 343.975 78.5898 344.449 77.9922 344.449ZM68.0785 342.34H76.9375V333.48H68.0785V342.34Z" fill="#0292FF"/>
<path d="M63.1567 344.449H52.1879C51.6078 344.449 51.1332 343.975 51.1332 343.395V332.426C51.1332 331.846 51.6078 331.371 52.1879 331.371H63.1567C63.7368 331.371 64.2114 331.846 64.2114 332.426V343.395C64.2114 343.975 63.7368 344.449 63.1567 344.449ZM53.2426 342.34H62.102V333.48H53.2426V342.34Z" fill="#0292FF"/>
<path d="M48.3031 344.449H37.3342C36.7541 344.449 36.2795 343.975 36.2795 343.395V332.426C36.2795 331.846 36.7541 331.371 37.3342 331.371H48.3031C48.8832 331.371 49.3578 331.846 49.3578 332.426V343.395C49.3578 343.975 48.8832 344.449 48.3031 344.449ZM38.3889 342.34H47.2484V333.48H38.3889V342.34Z" fill="#0292FF"/>
<path d="M77.9922 359.074H67.0238C66.4438 359.074 65.9692 358.6 65.9692 358.02V347.051C65.9692 346.471 66.4438 345.996 67.0238 345.996H77.9922C78.5722 345.996 79.0468 346.471 79.0468 347.051V358.02C79.0468 358.6 78.5898 359.074 77.9922 359.074ZM68.0785 356.965H76.9375V348.105H68.0785V356.965Z" fill="#0292FF"/>
<path d="M63.1567 359.074H52.1879C51.6078 359.074 51.1332 358.6 51.1332 358.02V347.051C51.1332 346.471 51.6078 345.996 52.1879 345.996H63.1567C63.7368 345.996 64.2114 346.471 64.2114 347.051V358.02C64.2114 358.6 63.7368 359.074 63.1567 359.074ZM53.2426 356.965H62.102V348.105H53.2426V356.965Z" fill="#0292FF"/>
<path d="M48.0392 374.364H37.0705C36.4904 374.364 36.0158 373.889 36.0158 373.309V362.34C36.0158 361.76 36.4904 361.286 37.0705 361.286H48.0392C48.6193 361.286 49.0939 361.76 49.0939 362.34V373.309C49.0939 373.907 48.6193 374.364 48.0392 374.364ZM38.1252 372.254H46.9845V363.395H38.1252V372.254Z" fill="#0292FF"/>
<path d="M62.8928 374.364H51.924C51.3439 374.364 50.8693 373.889 50.8693 373.309V362.34C50.8693 361.76 51.3439 361.286 51.924 361.286H62.8928C63.4728 361.286 63.9474 361.76 63.9474 362.34V373.309C63.9474 373.907 63.4728 374.364 62.8928 374.364ZM52.9611 372.254H61.8205V363.395H52.9611V372.254Z" fill="#0292FF"/>
<path d="M77.7287 374.364H66.76C66.1799 374.364 65.7053 373.889 65.7053 373.309V362.34C65.7053 361.76 66.1799 361.286 66.76 361.286H77.7287C78.3088 361.286 78.7834 361.76 78.7834 362.34V373.309C78.7834 373.907 78.3088 374.364 77.7287 374.364ZM67.8146 372.254H76.674V363.395H67.8146V372.254Z" fill="#0292FF"/>
<path d="M48.0392 389.006H37.0705C36.4904 389.006 36.0158 388.532 36.0158 387.952V376.983C36.0158 376.403 36.4904 375.928 37.0705 375.928H48.0392C48.6193 375.928 49.0939 376.403 49.0939 376.983V387.952C49.0939 388.532 48.6193 389.006 48.0392 389.006ZM38.1252 386.897H46.9845V378.038H38.1252V386.897Z" fill="#0292FF"/>
<path d="M62.8928 389.006H51.924C51.3439 389.006 50.8693 388.532 50.8693 387.952V376.983C50.8693 376.403 51.3439 375.928 51.924 375.928H62.8928C63.4728 375.928 63.9474 376.403 63.9474 376.983V387.952C63.9474 388.532 63.4728 389.006 62.8928 389.006ZM52.9611 386.897H61.8205V378.038H52.9611V386.897Z" fill="#0292FF"/>
<path d="M77.7287 389.006H66.76C66.1799 389.006 65.7053 388.532 65.7053 387.952V376.983C65.7053 376.403 66.1799 375.928 66.76 375.928H77.7287C78.3088 375.928 78.7834 376.403 78.7834 376.983V387.952C78.7834 388.532 78.3088 389.006 77.7287 389.006ZM67.8146 386.897H76.674V378.038H67.8146V386.897Z" fill="#0292FF"/>
<path d="M48.0392 403.631H37.0705C36.4904 403.631 36.0158 403.157 36.0158 402.577V391.608C36.0158 391.028 36.4904 390.553 37.0705 390.553H48.0392C48.6193 390.553 49.0939 391.028 49.0939 391.608V402.577C49.0939 403.157 48.6193 403.631 48.0392 403.631ZM38.1252 401.522H46.9845V392.663H38.1252V401.522Z" fill="#0292FF"/>
<path d="M62.8928 403.631H51.924C51.3439 403.631 50.8693 403.157 50.8693 402.577V391.608C50.8693 391.028 51.3439 390.553 51.924 390.553H62.8928C63.4728 390.553 63.9474 391.028 63.9474 391.608V402.577C63.9474 403.157 63.4728 403.631 62.8928 403.631ZM52.9611 401.522H61.8205V392.663H52.9611V401.522Z" fill="#0292FF"/>
<path d="M77.7287 403.631H66.76C66.1799 403.631 65.7053 403.157 65.7053 402.577V391.608C65.7053 391.028 66.1799 390.553 66.76 390.553H77.7287C78.3088 390.553 78.7834 391.028 78.7834 391.608V402.577C78.7834 403.157 78.3088 403.631 77.7287 403.631ZM67.8146 401.522H76.674V392.663H67.8146V401.522Z" fill="#0292FF"/>
<path d="M48.3031 359.074H37.3342C36.7541 359.074 36.2795 358.6 36.2795 358.02V347.051C36.2795 346.471 36.7541 345.996 37.3342 345.996H48.3031C48.8832 345.996 49.3578 346.471 49.3578 347.051V358.02C49.3578 358.6 48.8832 359.074 48.3031 359.074ZM38.3889 356.965H47.2484V348.105H38.3889V356.965Z" fill="#0292FF"/>
<path d="M906.766 410.227H724.024C723.443 410.227 722.969 409.752 722.969 409.172V370.219C722.969 369.639 723.443 369.164 724.024 369.164H906.766C907.346 369.164 907.82 369.639 907.82 370.219V409.172C907.82 409.752 907.346 410.227 906.766 410.227ZM725.078 408.117H905.711V371.274H725.078V408.117Z" fill="#0292FF"/>
<path d="M747.121 367.529H744.643C744.063 367.529 743.588 367.055 743.588 366.475V344.133C743.588 343.553 744.063 343.078 744.643 343.078H747.121C747.701 343.078 748.176 343.553 748.176 344.133V366.475C748.176 367.055 747.701 367.529 747.121 367.529ZM745.698 365.42H746.067V345.188H745.698V365.42Z" fill="#0292FF"/>
<path d="M758.776 367.529H756.297C755.717 367.529 755.242 367.055 755.242 366.475V344.133C755.242 343.553 755.717 343.078 756.297 343.078H758.776C759.356 343.078 759.83 343.553 759.83 344.133V366.475C759.83 367.055 759.356 367.529 758.776 367.529ZM757.352 365.42H757.721V345.188H757.352V365.42Z" fill="#0292FF"/>
<path d="M781.117 367.529H776.916C776.336 367.529 775.862 367.055 775.862 366.475V344.133C775.862 343.553 776.336 343.078 776.916 343.078H781.117C781.698 343.078 782.172 343.553 782.172 344.133V366.475C782.172 367.055 781.698 367.529 781.117 367.529ZM777.971 365.42H780.063V345.188H777.971V365.42Z" fill="#0292FF"/>
<path d="M802.123 367.529H797.922C797.342 367.529 796.867 367.055 796.867 366.475V344.133C796.867 343.553 797.342 343.078 797.922 343.078H802.123C802.703 343.078 803.178 343.553 803.178 344.133V366.475C803.178 367.055 802.703 367.529 802.123 367.529ZM798.977 365.42H801.069V345.188H798.977V365.42Z" fill="#0292FF"/>
<path d="M887.869 342.129H742.938C742.709 342.129 742.481 342.059 742.305 341.918L732.373 334.465C732.004 334.201 731.864 333.727 732.004 333.287C732.145 332.848 732.549 332.567 733.006 332.567H897.801C898.258 332.567 898.662 332.865 898.803 333.287C898.943 333.727 898.803 334.184 898.434 334.465L888.502 341.918C888.309 342.059 888.098 342.129 887.869 342.129ZM743.272 340.02H887.5L894.619 334.676H736.153L743.272 340.02Z" fill="#0292FF"/>
<path d="M873.93 334.5H756.877C756.297 334.5 755.823 334.026 755.823 333.445V314.725C755.823 314.145 756.297 313.67 756.877 313.67H873.93C874.51 313.67 874.985 314.145 874.985 314.725V333.445C874.985 334.026 874.51 334.5 873.93 334.5ZM757.914 332.391H872.858V315.779H757.914V332.391Z" fill="#0292FF"/>
<path d="M779.764 331.442H760.287C759.707 331.442 759.233 330.967 759.233 330.387V320.262C759.233 319.682 759.707 319.207 760.287 319.207H779.764C780.344 319.207 780.818 319.682 780.818 320.262V330.387C780.818 330.967 780.344 331.442 779.764 331.442ZM761.36 329.332H778.727V321.317H761.36V329.332Z" fill="#0292FF"/>
<path d="M802.439 331.442H782.963C782.383 331.442 781.908 330.967 781.908 330.387V320.262C781.908 319.682 782.383 319.207 782.963 319.207H802.439C803.02 319.207 803.494 319.682 803.494 320.262V330.387C803.494 330.967 803.037 331.442 802.439 331.442ZM784.035 329.332H801.402V321.317H784.035V329.332Z" fill="#0292FF"/>
<path d="M815.957 313.863H815.377H814.815C814.78 313.863 814.762 313.863 814.727 313.863L745.873 313.67C745.311 313.67 744.854 313.231 744.819 312.668C744.783 312.106 745.205 311.631 745.768 311.561C745.979 311.543 767.09 309.24 772.504 304.565C777.778 299.994 777.496 292.313 777.496 292.242C777.479 291.961 777.584 291.68 777.795 291.469C777.989 291.258 778.27 291.135 778.551 291.135H780.467C780.871 291.135 781.24 291.363 781.416 291.733C781.434 291.75 782.77 294.334 787.481 296.83C795.356 300.996 806.377 301.664 814.34 301.506C814.446 301.471 814.569 301.453 814.692 301.453C814.832 301.453 814.973 301.453 815.114 301.471C815.219 301.471 815.325 301.471 815.412 301.471C815.518 301.471 815.623 301.471 815.711 301.471C815.852 301.471 815.992 301.471 816.133 301.453C816.256 301.453 816.379 301.471 816.485 301.506C824.448 301.682 835.469 300.996 843.344 296.83C848.055 294.352 849.391 291.75 849.409 291.733C849.584 291.363 849.953 291.152 850.358 291.152H852.274C852.555 291.152 852.836 291.276 853.03 291.486C853.223 291.697 853.328 291.979 853.328 292.26C853.328 292.33 853.047 300.029 858.321 304.582C860.518 306.498 865.809 308.309 873.614 309.838C879.608 311.016 884.987 311.596 885.039 311.596C885.602 311.649 886.006 312.141 885.989 312.703C885.954 313.266 885.497 313.705 884.934 313.705L816.08 313.899C816.028 313.863 815.992 313.863 815.957 313.863ZM815.395 311.754H815.887C815.905 311.754 815.94 311.754 815.957 311.754L871.75 311.596C865.897 310.365 859.692 308.59 856.897 306.147C852.063 301.963 851.307 295.74 851.201 293.227H850.938C849.391 295.529 842.325 303.615 818.77 303.615C817.908 303.615 817.03 303.598 816.133 303.58C816.045 303.58 815.975 303.563 815.905 303.545C815.852 303.545 815.799 303.545 815.746 303.545C815.641 303.545 815.535 303.545 815.43 303.545C815.412 303.545 815.395 303.545 815.36 303.545C815.254 303.545 815.149 303.545 815.043 303.545C814.991 303.545 814.938 303.545 814.885 303.545C814.815 303.563 814.727 303.58 814.657 303.58C813.76 303.598 812.881 303.615 812.02 303.615C788.465 303.615 781.399 295.547 779.852 293.227H779.588C779.483 295.74 778.709 301.963 773.893 306.147C771.098 308.572 764.893 310.365 759.039 311.596L814.832 311.754C814.85 311.754 814.885 311.754 814.903 311.754H815.395Z" fill="#0292FF"/>
<path d="M759.321 409.945H743.571C742.99 409.945 742.516 409.471 742.516 408.891V400.734C742.516 395.813 746.524 391.805 751.446 391.805C756.367 391.805 760.375 395.813 760.375 400.734V408.891C760.375 409.471 759.901 409.945 759.321 409.945ZM744.625 407.836H758.266V400.734C758.266 396.973 755.207 393.914 751.446 393.914C747.684 393.914 744.625 396.973 744.625 400.734V407.836Z" fill="#0292FF"/>
<path d="M790.363 409.945H771.643C771.063 409.945 770.588 409.471 770.588 408.891V399.188C770.588 393.44 775.264 388.781 780.994 388.781C786.724 388.781 791.4 393.457 791.4 399.188V408.891C791.418 409.471 790.943 409.945 790.363 409.945ZM772.697 407.836H789.308V399.188C789.308 394.617 785.582 390.891 781.012 390.891C776.441 390.891 772.715 394.617 772.715 399.188V407.836H772.697Z" fill="#0292FF"/>
<path d="M826.856 409.945H801.824C801.244 409.945 800.77 409.471 800.77 408.891V395.918C800.77 388.43 806.852 382.348 814.34 382.348C821.828 382.348 827.91 388.43 827.91 395.918V408.891C827.91 409.471 827.436 409.945 826.856 409.945ZM802.861 407.836H825.783V395.918C825.783 389.59 820.633 384.457 814.322 384.457C808.012 384.457 802.861 389.608 802.861 395.918V407.836Z" fill="#0292FF"/>
<path d="M887.869 347.279H742.938C742.358 347.279 741.883 346.805 741.883 346.225V341.074C741.883 340.494 742.358 340.02 742.938 340.02H887.869C888.449 340.02 888.924 340.494 888.924 341.074V346.225C888.924 346.822 888.449 347.279 887.869 347.279ZM743.975 345.17H886.797V342.129H743.975V345.17Z" fill="#0292FF"/>
<path d="M906.766 373.066H724.024C723.443 373.066 722.969 372.592 722.969 372.012V366.563C722.969 365.983 723.443 365.508 724.024 365.508H906.766C907.346 365.508 907.82 365.983 907.82 366.563V372.012C907.82 372.592 907.346 373.066 906.766 373.066ZM725.078 370.957H905.711V367.617H725.078V370.957Z" fill="#0292FF"/>
<path d="M887.483 318.258H743.307C742.727 318.258 742.252 317.783 742.252 317.203V312.615C742.252 312.035 742.727 311.561 743.307 311.561H887.483C888.063 311.561 888.537 312.035 888.537 312.615V317.203C888.537 317.783 888.063 318.258 887.483 318.258ZM744.362 316.149H886.428V313.67H744.362V316.149Z" fill="#0292FF"/>
<path d="M779.043 295.143C776.776 295.143 774.93 293.297 774.93 291.029C774.93 288.762 776.776 286.916 779.043 286.916C781.311 286.916 783.156 288.762 783.156 291.029C783.156 293.297 781.311 295.143 779.043 295.143ZM779.043 289.026C777.936 289.026 777.039 289.922 777.039 291.029C777.039 292.137 777.936 293.033 779.043 293.033C780.151 293.033 781.047 292.137 781.047 291.029C781.047 289.922 780.151 289.026 779.043 289.026Z" fill="#0292FF"/>
<path d="M315.842 410.227H97.5393C96.9592 410.227 96.4846 409.752 96.4846 409.172V372.328C96.4846 371.748 96.9592 371.273 97.5393 371.273H315.842C316.422 371.273 316.897 371.748 316.897 372.328V409.172C316.897 409.752 316.422 410.227 315.842 410.227ZM98.594 408.118H314.787V373.383H98.594V408.118Z" fill="#0292FF"/>
<path d="M121.323 409.681H107.172C106.592 409.681 106.117 409.207 106.117 408.627V386.901C106.117 382.418 109.774 378.762 114.256 378.762C118.738 378.762 122.395 382.418 122.395 386.901V408.627C122.377 409.224 121.903 409.681 121.323 409.681ZM108.209 407.572H120.25V386.901C120.25 383.578 117.543 380.871 114.221 380.871C110.899 380.871 108.192 383.578 108.192 386.901V407.572H108.209Z" fill="#0292FF"/>
<path d="M152.207 409.681H138.057C137.477 409.681 137.002 409.207 137.002 408.627V386.901C137.002 382.418 140.658 378.762 145.141 378.762C149.623 378.762 153.28 382.418 153.28 386.901V408.627C153.262 409.224 152.787 409.681 152.207 409.681ZM139.112 407.572H151.153V386.901C151.153 383.578 148.446 380.871 145.123 380.871C141.801 380.871 139.094 383.578 139.094 386.901V407.572H139.112Z" fill="#0292FF"/>
<path d="M183.11 409.681H168.959C168.379 409.681 167.905 409.207 167.905 408.627V386.901C167.905 382.418 171.561 378.762 176.043 378.762C180.526 378.762 184.182 382.418 184.182 386.901V408.627C184.164 409.224 183.69 409.681 183.11 409.681ZM170.014 407.572H182.055V386.901C182.055 383.578 179.348 380.871 176.026 380.871C172.703 380.871 169.996 383.578 169.996 386.901V407.572H170.014Z" fill="#0292FF"/>
<path d="M214.012 409.681H199.862C199.281 409.681 198.807 409.207 198.807 408.627V386.901C198.807 382.418 202.463 378.762 206.945 378.762C211.428 378.762 215.084 382.418 215.084 386.901V408.627C215.067 409.224 214.592 409.681 214.012 409.681ZM200.899 407.572H212.94V386.901C212.94 383.578 210.233 380.871 206.91 380.871C203.588 380.871 200.881 383.578 200.881 386.901V407.572H200.899Z" fill="#0292FF"/>
<path d="M244.897 409.681H230.746C230.166 409.681 229.692 409.207 229.692 408.627V386.901C229.692 382.418 233.348 378.762 237.83 378.762C242.313 378.762 245.969 382.418 245.969 386.901V408.627C245.951 409.224 245.477 409.681 244.897 409.681ZM231.801 407.572H243.842V386.901C243.842 383.578 241.135 380.871 237.813 380.871C234.49 380.871 231.783 383.578 231.783 386.901V407.572H231.801Z" fill="#0292FF"/>
<path d="M275.799 409.681H261.649C261.069 409.681 260.594 409.207 260.594 408.627V386.901C260.594 382.418 264.25 378.762 268.733 378.762C273.215 378.762 276.871 382.418 276.871 386.901V408.627C276.854 409.224 276.379 409.681 275.799 409.681ZM262.703 407.572H274.744V386.901C274.744 383.578 272.037 380.871 268.715 380.871C265.393 380.871 262.686 383.578 262.686 386.901V407.572H262.703Z" fill="#0292FF"/>
<path d="M306.701 409.681H292.551C291.971 409.681 291.496 409.207 291.496 408.627V386.901C291.496 382.418 295.152 378.762 299.635 378.762C304.117 378.762 307.774 382.418 307.774 386.901V408.627C307.756 409.224 307.281 409.681 306.701 409.681ZM293.588 407.572H305.629V386.901C305.629 383.578 302.922 380.871 299.6 380.871C296.278 380.871 293.57 383.578 293.57 386.901V407.572H293.588Z" fill="#0292FF"/>
<path d="M316.686 370.219H287.945C287.365 370.219 286.891 369.744 286.891 369.164V350.461C286.891 349.881 287.365 349.407 287.945 349.407H316.686C317.266 349.407 317.74 349.881 317.74 350.461V369.164C317.74 369.744 317.266 370.219 316.686 370.219ZM289 368.109H315.631V351.516H289V368.109Z" fill="#0292FF"/>
<path d="M294.889 370.078H290.899C290.319 370.078 289.844 369.603 289.844 369.023V355.893C289.844 354.205 291.215 352.852 292.885 352.852C294.555 352.852 295.926 354.223 295.926 355.893V369.023C295.944 369.621 295.487 370.078 294.889 370.078ZM291.971 367.969H293.852V355.893C293.852 355.383 293.43 354.961 292.92 354.961C292.41 354.961 291.989 355.383 291.989 355.893V367.969H291.971Z" fill="#0292FF"/>
<path d="M304.311 370.078H300.32C299.74 370.078 299.266 369.603 299.266 369.023V355.893C299.266 354.205 300.637 352.852 302.307 352.852C303.977 352.852 305.348 354.223 305.348 355.893V369.023C305.365 369.621 304.891 370.078 304.311 370.078ZM301.375 367.969H303.256V355.893C303.256 355.383 302.834 354.961 302.324 354.961C301.815 354.961 301.393 355.383 301.393 355.893V367.969H301.375Z" fill="#0292FF"/>
<path d="M313.733 370.078H309.742C309.162 370.078 308.688 369.603 308.688 369.023V355.893C308.688 354.205 310.059 352.852 311.729 352.852C313.416 352.852 314.77 354.223 314.77 355.893V369.023C314.787 369.621 314.313 370.078 313.733 370.078ZM310.797 367.969H312.678V355.893C312.678 355.383 312.256 354.961 311.746 354.961C311.236 354.961 310.815 355.383 310.815 355.893V367.969H310.797Z" fill="#0292FF"/>
<path d="M316.756 348.914H287.893C287.313 348.914 286.838 348.439 286.838 347.859V344.01C286.838 335.467 293.781 328.524 302.324 328.524C310.867 328.524 317.811 335.467 317.811 344.01V347.859C317.811 348.439 317.336 348.914 316.756 348.914ZM288.947 346.805H315.701V344.01C315.701 336.627 309.707 330.633 302.324 330.633C294.942 330.633 288.947 336.627 288.947 344.01V346.805Z" fill="#0292FF"/>
<path d="M304.012 330.914H300.637C300.338 330.914 300.057 330.791 299.864 330.563C299.67 330.352 299.565 330.053 299.6 329.754L300.971 314.83C301.024 314.303 301.463 313.881 302.008 313.881C302.535 313.863 303.01 314.267 303.08 314.795L305.067 329.719C305.102 330.018 305.014 330.317 304.82 330.545C304.592 330.774 304.311 330.914 304.012 330.914ZM301.797 328.805H302.799L302.201 324.34L301.797 328.805Z" fill="#0292FF"/>
<path d="M319.305 352.483H285.344C284.764 352.483 284.289 352.008 284.289 351.428V347.367C284.289 346.787 284.764 346.312 285.344 346.312H319.305C319.885 346.312 320.36 346.787 320.36 347.367V351.428C320.36 352.026 319.885 352.483 319.305 352.483ZM286.399 350.373H318.25V348.422H286.399V350.373Z" fill="#0292FF"/>
<path d="M279.842 338.332H251.102C250.522 338.332 250.047 337.858 250.047 337.278V318.574C250.047 317.994 250.522 317.519 251.102 317.519H279.842C280.422 317.519 280.897 317.994 280.897 318.574V337.278C280.897 337.858 280.422 338.332 279.842 338.332ZM252.174 336.223H278.805V319.629H252.174V336.223Z" fill="#0292FF"/>
<path d="M258.045 338.192H254.055C253.475 338.192 253 337.717 253 337.137V324.006C253 322.319 254.371 320.965 256.041 320.965C257.729 320.965 259.082 322.336 259.082 324.006V337.137C259.1 337.717 258.643 338.192 258.045 338.192ZM255.127 336.082H257.008V324.006C257.008 323.496 256.586 323.075 256.076 323.075C255.567 323.075 255.145 323.496 255.145 324.006V336.082H255.127Z" fill="#0292FF"/>
<path d="M267.467 338.192H263.477C262.897 338.192 262.422 337.717 262.422 337.137V324.006C262.422 322.319 263.793 320.965 265.463 320.965C267.151 320.965 268.504 322.336 268.504 324.006V337.137C268.522 337.717 268.047 338.192 267.467 338.192ZM264.531 336.082H266.412V324.006C266.412 323.496 265.99 323.075 265.481 323.075C264.971 323.075 264.549 323.496 264.549 324.006V336.082H264.531Z" fill="#0292FF"/>
<path d="M276.889 338.192H272.899C272.319 338.192 271.844 337.717 271.844 337.137V324.006C271.844 322.319 273.215 320.965 274.885 320.965C276.572 320.965 277.926 322.336 277.926 324.006V337.137C277.944 337.717 277.469 338.192 276.889 338.192ZM273.953 336.082H275.834V324.006C275.834 323.496 275.412 323.075 274.903 323.075C274.393 323.075 273.971 323.496 273.971 324.006V336.082H273.953Z" fill="#0292FF"/>
<path d="M279.912 317.028H251.049C250.469 317.028 249.994 316.553 249.994 315.973V312.123C249.994 303.58 256.938 296.637 265.481 296.637C274.024 296.637 280.967 303.58 280.967 312.123V315.973C280.967 316.553 280.492 317.028 279.912 317.028ZM252.104 314.918H278.858V312.123C278.858 304.741 272.863 298.746 265.481 298.746C258.098 298.746 252.104 304.741 252.104 312.123V314.918Z" fill="#0292FF"/>
<path d="M267.168 299.01H263.793C263.494 299.01 263.213 298.887 263.02 298.658C262.826 298.447 262.721 298.148 262.756 297.849L264.127 282.926C264.18 282.398 264.619 281.976 265.164 281.976C265.692 281.976 266.166 282.363 266.236 282.89L268.223 297.814C268.258 298.113 268.17 298.412 267.977 298.641C267.748 298.887 267.467 299.01 267.168 299.01ZM264.953 296.9H265.955L265.358 292.435L264.953 296.9Z" fill="#0292FF"/>
<path d="M282.461 320.596H248.5C247.92 320.596 247.445 320.121 247.445 319.541V315.481C247.445 314.901 247.92 314.426 248.5 314.426H282.461C283.041 314.426 283.516 314.901 283.516 315.481V319.541C283.516 320.121 283.041 320.596 282.461 320.596ZM249.555 318.486H281.406V316.535H249.555V318.486Z" fill="#0292FF"/>
<path d="M125.875 370.219H97.1349C96.5549 370.219 96.0803 369.744 96.0803 369.164V350.461C96.0803 349.881 96.5549 349.407 97.1349 349.407H125.875C126.455 349.407 126.93 349.881 126.93 350.461V369.164C126.93 369.744 126.455 370.219 125.875 370.219ZM98.1896 368.109H124.82V351.516H98.1896V368.109Z" fill="#0292FF"/>
<path d="M122.922 370.078H118.932C118.352 370.078 117.877 369.603 117.877 369.023V355.893C117.877 354.205 119.248 352.852 120.918 352.852C122.588 352.852 123.959 354.223 123.959 355.893V369.023C123.977 369.621 123.502 370.078 122.922 370.078ZM119.987 367.969H121.867V355.893C121.867 355.383 121.446 354.961 120.936 354.961C120.426 354.961 120.004 355.383 120.004 355.893V367.969H119.987Z" fill="#0292FF"/>
<path d="M113.5 370.078H109.51C108.93 370.078 108.455 369.603 108.455 369.023V355.893C108.455 354.205 109.826 352.852 111.496 352.852C113.184 352.852 114.537 354.223 114.537 355.893V369.023C114.555 369.621 114.08 370.078 113.5 370.078ZM110.565 367.969H112.446V355.893C112.446 355.383 112.024 354.961 111.514 354.961C111.004 354.961 110.582 355.383 110.582 355.893V367.969H110.565Z" fill="#0292FF"/>
<path d="M104.079 370.078H100.088C99.5081 370.078 99.0334 369.603 99.0334 369.023V355.893C99.0334 354.205 100.405 352.852 102.075 352.852C103.745 352.852 105.116 354.223 105.116 355.893V369.023C105.133 369.621 104.676 370.078 104.079 370.078ZM101.16 367.969H103.041V355.893C103.041 355.383 102.619 354.961 102.11 354.961C101.6 354.961 101.178 355.383 101.178 355.893V367.969H101.16Z" fill="#0292FF"/>
<path d="M125.945 348.914H97.0822C96.5021 348.914 96.0275 348.439 96.0275 347.859V344.01C96.0275 335.467 102.971 328.524 111.514 328.524C120.057 328.524 127 335.467 127 344.01V347.859C127 348.439 126.526 348.914 125.945 348.914ZM98.1369 346.805H124.891V344.01C124.891 336.627 118.897 330.633 111.514 330.633C104.131 330.633 98.1369 336.627 98.1369 344.01V346.805Z" fill="#0292FF"/>
<path d="M113.202 330.914H109.826C109.528 330.914 109.229 330.791 109.035 330.563C108.842 330.334 108.737 330.035 108.789 329.737L110.776 314.813C110.846 314.286 111.303 313.881 111.848 313.899C112.393 313.916 112.832 314.321 112.885 314.848L114.256 329.772C114.291 330.071 114.186 330.352 113.993 330.58C113.764 330.774 113.483 330.914 113.202 330.914ZM111.022 328.805H112.024L111.619 324.34L111.022 328.805Z" fill="#0292FF"/>
<path d="M128.494 352.483H94.5334C93.9533 352.483 93.4787 352.008 93.4787 351.428V347.367C93.4787 346.787 93.9533 346.312 94.5334 346.312H128.494C129.074 346.312 129.549 346.787 129.549 347.367V351.428C129.549 352.026 129.074 352.483 128.494 352.483ZM95.5881 350.373H127.44V348.422H95.5881V350.373Z" fill="#0292FF"/>
<path d="M161.893 338.332H133.153C132.572 338.332 132.098 337.858 132.098 337.278V318.574C132.098 317.994 132.572 317.519 133.153 317.519H161.893C162.473 317.519 162.947 317.994 162.947 318.574V337.278C162.947 337.858 162.473 338.332 161.893 338.332ZM134.207 336.223H160.838V319.629H134.207V336.223Z" fill="#0292FF"/>
<path d="M158.94 338.192H154.949C154.369 338.192 153.895 337.717 153.895 337.137V324.006C153.895 322.319 155.266 320.965 156.936 320.965C158.623 320.965 159.977 322.336 159.977 324.006V337.137C159.994 337.717 159.52 338.192 158.94 338.192ZM156.004 336.082H157.885V324.006C157.885 323.496 157.463 323.075 156.953 323.075C156.444 323.075 156.022 323.496 156.022 324.006V336.082H156.004Z" fill="#0292FF"/>
<path d="M149.518 338.192H145.528C144.948 338.192 144.473 337.717 144.473 337.137V324.006C144.473 322.319 145.844 320.965 147.514 320.965C149.184 320.965 150.555 322.336 150.555 324.006V337.137C150.572 337.717 150.098 338.192 149.518 338.192ZM146.582 336.082H148.463V324.006C148.463 323.496 148.041 323.075 147.531 323.075C147.022 323.075 146.6 323.496 146.6 324.006V336.082H146.582Z" fill="#0292FF"/>
<path d="M140.096 338.192H136.106C135.526 338.192 135.051 337.717 135.051 337.137V324.006C135.051 322.319 136.422 320.965 138.092 320.965C139.78 320.965 141.133 322.336 141.133 324.006V337.137C141.151 337.717 140.694 338.192 140.096 338.192ZM137.178 336.082H139.059V324.006C139.059 323.496 138.637 323.075 138.127 323.075C137.617 323.075 137.196 323.496 137.196 324.006V336.082H137.178Z" fill="#0292FF"/>
<path d="M161.963 317.028H133.1C132.52 317.028 132.045 316.553 132.045 315.973V312.123C132.045 303.58 138.989 296.637 147.531 296.637C156.074 296.637 163.018 303.58 163.018 312.123V315.973C163.018 316.553 162.543 317.028 161.963 317.028ZM134.155 314.918H160.908V312.123C160.908 304.741 154.914 298.746 147.531 298.746C140.149 298.746 134.155 304.741 134.155 312.123V314.918Z" fill="#0292FF"/>
<path d="M149.219 299.01H145.844C145.545 299.01 145.246 298.887 145.053 298.658C144.86 298.43 144.754 298.131 144.807 297.832L146.793 282.909C146.864 282.381 147.321 281.977 147.866 281.995C148.41 282.012 148.85 282.416 148.903 282.944L150.274 297.867C150.309 298.166 150.203 298.447 150.01 298.676C149.782 298.887 149.5 299.01 149.219 299.01ZM147.039 296.9H148.041L147.637 292.436L147.039 296.9Z" fill="#0292FF"/>
<path d="M164.512 320.596H130.551C129.971 320.596 129.496 320.121 129.496 319.541V315.481C129.496 314.901 129.971 314.426 130.551 314.426H164.512C165.092 314.426 165.567 314.901 165.567 315.481V319.541C165.567 320.121 165.092 320.596 164.512 320.596ZM131.606 318.486H163.457V316.535H131.606V318.486Z" fill="#0292FF"/>
<path d="M277.891 370.641H135.473C134.893 370.641 134.418 370.166 134.418 369.586V339.615C134.418 339.035 134.893 338.56 135.473 338.56H277.891C278.471 338.56 278.946 339.035 278.946 339.615V369.586C278.946 370.166 278.489 370.641 277.891 370.641ZM136.528 368.531H276.836V340.67H136.528V368.531Z" fill="#0292FF"/>
<path d="M150.467 363.17C150.203 363.17 149.922 363.065 149.729 362.854L143.313 356.438C143.119 356.244 142.996 355.963 142.996 355.699C142.996 355.418 143.102 355.154 143.313 354.961L149.729 348.545C150.133 348.14 150.801 348.14 151.223 348.545L157.639 354.961C157.832 355.154 157.955 355.436 157.955 355.699C157.955 355.963 157.85 356.244 157.639 356.438L151.223 362.854C150.994 363.065 150.731 363.17 150.467 363.17ZM145.545 355.699L150.467 360.621L155.389 355.699L150.467 350.777L145.545 355.699Z" fill="#0292FF"/>
<path d="M178.504 363.17C178.223 363.17 177.959 363.065 177.766 362.854L171.35 356.438C171.156 356.244 171.033 355.963 171.033 355.699C171.033 355.418 171.139 355.154 171.35 354.961L177.766 348.545C178.17 348.14 178.838 348.14 179.26 348.545L185.676 354.961C185.869 355.154 185.992 355.436 185.992 355.699C185.992 355.98 185.887 356.244 185.676 356.438L179.26 362.854C179.049 363.047 178.785 363.17 178.504 363.17ZM173.582 355.699L178.504 360.621L183.426 355.699L178.504 350.777L173.582 355.699Z" fill="#0292FF"/>
<path d="M206.559 363.17C206.278 363.17 206.014 363.065 205.82 362.854L199.404 356.438C199.211 356.244 199.088 355.963 199.088 355.699C199.088 355.418 199.194 355.154 199.404 354.961L205.82 348.545C206.225 348.14 206.893 348.14 207.315 348.545L213.731 354.961C213.924 355.154 214.047 355.436 214.047 355.699C214.047 355.98 213.942 356.244 213.731 356.438L207.315 362.854C207.104 363.047 206.822 363.17 206.559 363.17ZM201.619 355.699L206.541 360.621L211.463 355.699L206.541 350.777L201.619 355.699Z" fill="#0292FF"/>
<path d="M234.596 363.17C234.315 363.17 234.051 363.065 233.858 362.854L227.442 356.438C227.248 356.244 227.125 355.963 227.125 355.699C227.125 355.418 227.231 355.154 227.442 354.961L233.858 348.545C234.262 348.14 234.93 348.14 235.352 348.545L241.768 354.961C241.961 355.154 242.084 355.436 242.084 355.699C242.084 355.98 241.979 356.244 241.768 356.438L235.352 362.854C235.141 363.047 234.877 363.17 234.596 363.17ZM229.674 355.699L234.596 360.621L239.518 355.699L234.596 350.777L229.674 355.699Z" fill="#0292FF"/>
<path d="M262.633 363.17C262.352 363.17 262.088 363.065 261.895 362.854L255.479 356.438C255.285 356.244 255.162 355.963 255.162 355.699C255.162 355.418 255.268 355.154 255.479 354.961L261.895 348.545C262.299 348.14 262.967 348.14 263.389 348.545L269.805 354.961C269.998 355.154 270.121 355.436 270.121 355.699C270.121 355.98 270.016 356.244 269.805 356.438L263.389 362.854C263.178 363.047 262.914 363.17 262.633 363.17ZM257.711 355.699L262.633 360.621L267.555 355.699L262.633 350.777L257.711 355.699Z" fill="#0292FF"/>
<path d="M240.238 338.473H172.598C172.018 338.473 171.543 337.998 171.543 337.418V311.579C171.543 310.998 172.018 310.524 172.598 310.524H240.238C240.819 310.524 241.293 310.998 241.293 311.579V337.418C241.293 337.998 240.819 338.473 240.238 338.473ZM173.653 336.363H239.184V312.633H173.653V336.363Z" fill="#0292FF"/>
<path d="M214.117 339.844H198.719C198.139 339.844 197.664 339.37 197.664 338.789V324.217C197.664 319.383 201.584 315.463 206.418 315.463C211.252 315.463 215.172 319.383 215.172 324.217V338.789C215.172 339.37 214.697 339.844 214.117 339.844ZM199.774 337.735H213.063V324.217C213.063 320.561 210.074 317.573 206.418 317.573C202.762 317.573 199.774 320.561 199.774 324.217V337.735Z" fill="#0292FF"/>
<path d="M239.061 306.569H174.444C173.864 306.569 173.389 306.094 173.389 305.514V278.848C173.389 278.268 173.864 277.793 174.444 277.793H239.061C239.641 277.793 240.115 278.268 240.115 278.848V305.514C240.115 306.094 239.641 306.569 239.061 306.569ZM175.498 304.459H238.006V279.903H175.498V304.459Z" fill="#0292FF"/>
<path d="M184.375 305.848H177.397C176.817 305.848 176.342 305.373 176.342 304.793V295.143C176.342 292.647 178.381 290.608 180.877 290.608C183.373 290.608 185.412 292.647 185.412 295.143V304.793C185.43 305.391 184.955 305.848 184.375 305.848ZM178.469 303.739H183.338V295.143C183.338 293.807 182.248 292.717 180.912 292.717C179.576 292.717 178.487 293.807 178.487 295.143V303.739H178.469Z" fill="#0292FF"/>
<path d="M197.383 305.848H190.405C189.824 305.848 189.35 305.373 189.35 304.793V295.143C189.35 292.647 191.389 290.608 193.885 290.608C196.381 290.608 198.42 292.647 198.42 295.143V304.793C198.438 305.391 197.963 305.848 197.383 305.848ZM191.459 303.739H196.328V295.143C196.328 293.807 195.239 292.717 193.903 292.717C192.567 292.717 191.477 293.807 191.477 295.143V303.739H191.459Z" fill="#0292FF"/>
<path d="M210.373 305.848H203.395C202.815 305.848 202.34 305.373 202.34 304.793V295.143C202.34 292.647 204.379 290.608 206.875 290.608C209.371 290.608 211.41 292.647 211.41 295.143V304.793C211.428 305.391 210.953 305.848 210.373 305.848ZM204.467 303.739H209.336V295.143C209.336 293.807 208.246 292.717 206.91 292.717C205.574 292.717 204.485 293.807 204.485 295.143V303.739H204.467Z" fill="#0292FF"/>
<path d="M223.381 305.848H216.403C215.822 305.848 215.348 305.373 215.348 304.793V295.143C215.348 292.647 217.387 290.608 219.883 290.608C222.379 290.608 224.418 292.647 224.418 295.143V304.793C224.436 305.391 223.961 305.848 223.381 305.848ZM217.457 303.739H222.326V295.143C222.326 293.807 221.236 292.717 219.901 292.717C218.565 292.717 217.475 293.807 217.475 295.143V303.739H217.457Z" fill="#0292FF"/>
<path d="M236.389 305.848H229.41C228.83 305.848 228.356 305.373 228.356 304.793V295.143C228.356 292.647 230.395 290.608 232.891 290.608C235.387 290.608 237.426 292.647 237.426 295.143V304.793C237.444 305.391 236.969 305.848 236.389 305.848ZM230.465 303.739H235.334V295.143C235.334 293.807 234.244 292.717 232.908 292.717C231.572 292.717 230.483 293.807 230.483 295.143L230.465 303.739Z" fill="#0292FF"/>
<path d="M239.131 279.902H174.514C174.215 279.902 173.934 279.779 173.723 279.551C173.53 279.322 173.424 279.023 173.459 278.742C174.549 268.389 179.664 260.707 188.647 255.926C199.211 250.301 203.571 246.24 203.606 246.187C203.799 245.994 204.063 245.889 204.326 245.889H209.283C209.547 245.889 209.793 245.976 209.987 246.152C213.924 249.668 217.809 252.058 222.731 255.082C224.998 256.488 227.354 257.93 230.008 259.67C233.629 262.043 236.53 266.103 238.41 271.412C239.817 275.367 240.151 278.601 240.168 278.742C240.203 279.041 240.098 279.34 239.905 279.551C239.711 279.762 239.43 279.902 239.131 279.902ZM175.709 277.793H237.918C237.707 276.545 237.268 274.435 236.424 272.08C235.229 268.705 232.944 264.117 228.866 261.445C226.246 259.723 223.908 258.281 221.641 256.892C216.948 254.01 212.887 251.514 208.897 247.998H204.748C203.553 249.053 199.018 252.797 189.649 257.771C181.668 262.025 176.975 268.758 175.709 277.793Z" fill="#0292FF"/>
<path d="M205.733 241.828C205.451 241.828 205.188 241.723 204.994 241.529C204.783 241.318 204.66 241.037 204.678 240.738L205.645 217.641C205.662 217.078 206.137 216.639 206.699 216.621C207.262 216.621 207.719 217.061 207.754 217.623L208.861 240.58C208.896 241.16 208.457 241.652 207.877 241.687L205.82 241.828C205.768 241.828 205.75 241.828 205.733 241.828Z" fill="#0292FF"/>
<path d="M282.303 342.322H131.078C130.498 342.322 130.024 341.848 130.024 341.267V336.873C130.024 336.293 130.498 335.818 131.078 335.818H282.303C282.883 335.818 283.358 336.293 283.358 336.873V341.267C283.358 341.848 282.883 342.322 282.303 342.322ZM132.133 340.213H281.248V337.928H132.133V340.213Z" fill="#0292FF"/>
<path d="M321.344 375.036H91.7736C91.1935 375.036 90.7189 374.561 90.7189 373.981V369.024C90.7189 368.444 91.1935 367.969 91.7736 367.969H321.344C321.924 367.969 322.399 368.444 322.399 369.024V373.981C322.399 374.561 321.924 375.036 321.344 375.036ZM92.8107 372.926H320.272V370.078H92.8107V372.926Z" fill="#0292FF"/>
<path d="M206.822 235.711C204.01 235.711 201.707 233.426 201.707 230.596C201.707 227.766 203.992 225.481 206.822 225.481C209.635 225.481 211.938 227.766 211.938 230.596C211.938 233.426 209.635 235.711 206.822 235.711ZM206.822 227.59C205.17 227.59 203.817 228.944 203.817 230.596C203.817 232.248 205.17 233.602 206.822 233.602C208.475 233.602 209.828 232.248 209.828 230.596C209.828 228.944 208.475 227.59 206.822 227.59Z" fill="#0292FF"/>
<path d="M206.823 248.842C203.887 248.842 201.514 246.452 201.514 243.534C201.514 240.598 203.905 238.225 206.823 238.225C209.741 238.225 212.131 240.616 212.131 243.534C212.149 246.452 209.758 248.842 206.823 248.842ZM206.823 240.317C205.047 240.317 203.623 241.758 203.623 243.516C203.623 245.274 205.065 246.715 206.823 246.715C208.58 246.715 210.022 245.274 210.022 243.516C210.022 241.758 208.598 240.317 206.823 240.317Z" fill="#0292FF"/>
<path d="M244.352 314.549H168.467C167.887 314.549 167.412 314.074 167.412 313.494V304.688C167.412 304.108 167.887 303.633 168.467 303.633H244.352C244.932 303.633 245.406 304.108 245.406 304.688V313.494C245.406 314.074 244.932 314.549 244.352 314.549ZM169.522 312.439H243.297V305.742H169.522V312.439Z" fill="#0292FF"/>
<path d="M618.625 320.983H464.588C464.008 320.983 463.533 320.508 463.533 319.928C463.533 319.348 464.008 318.873 464.588 318.873H618.625C619.205 318.873 619.68 319.348 619.68 319.928C619.68 320.508 619.205 320.983 618.625 320.983Z" fill="#0292FF"/>
<path d="M541.615 398.906C541.035 398.906 540.561 398.432 540.561 397.852V242.004C540.561 241.424 541.035 240.949 541.615 240.949C542.196 240.949 542.67 241.424 542.67 242.004V397.852C542.67 398.432 542.196 398.906 541.615 398.906Z" fill="#0292FF"/>
<path d="M614.811 344.942C614.706 344.942 614.6 344.924 614.477 344.889L468.086 296.988C467.541 296.813 467.225 296.215 467.418 295.652C467.594 295.108 468.192 294.791 468.754 294.984L615.145 342.885C615.69 343.061 616.006 343.659 615.813 344.221C615.655 344.66 615.251 344.942 614.811 344.942Z" fill="#0292FF"/>
<path d="M517.375 395.039C517.27 395.039 517.164 395.022 517.041 394.987C516.496 394.811 516.18 394.213 516.373 393.651L564.837 245.537C565.012 244.992 565.61 244.676 566.172 244.869C566.717 245.045 567.034 245.643 566.84 246.205L518.377 394.319C518.237 394.758 517.815 395.039 517.375 395.039Z" fill="#0292FF"/>
<path d="M603.684 366.563C603.473 366.563 603.244 366.493 603.068 366.352L478.932 275.174C478.457 274.822 478.369 274.172 478.703 273.697C479.037 273.223 479.705 273.135 480.18 273.469L604.316 364.647C604.791 364.999 604.879 365.649 604.545 366.123C604.316 366.422 604 366.563 603.684 366.563Z" fill="#0292FF"/>
<path d="M495.49 383.789C495.28 383.789 495.051 383.719 494.875 383.578C494.401 383.227 494.313 382.576 494.647 382.102L586.897 256.506C587.248 256.031 587.899 255.943 588.373 256.277C588.848 256.629 588.936 257.279 588.602 257.754L496.352 383.35C496.123 383.631 495.807 383.789 495.49 383.789Z" fill="#0292FF"/>
<path d="M586.546 383.526C586.212 383.526 585.895 383.367 585.684 383.086L495.807 258C495.473 257.526 495.578 256.875 496.053 256.524C496.528 256.19 497.178 256.295 497.529 256.77L587.407 381.856C587.741 382.33 587.635 382.981 587.161 383.332C586.985 383.455 586.774 383.526 586.546 383.526Z" fill="#0292FF"/>
<path d="M478.334 366.457C478 366.457 477.684 366.299 477.473 366.018C477.139 365.543 477.244 364.893 477.719 364.541L604.282 273.592C604.756 273.258 605.407 273.363 605.758 273.838C606.092 274.313 605.987 274.963 605.512 275.315L478.949 366.264C478.756 366.387 478.545 366.457 478.334 366.457Z" fill="#0292FF"/>
<path d="M564.907 394.388C564.467 394.388 564.045 394.107 563.905 393.65L517.287 246.838C517.112 246.276 517.41 245.695 517.973 245.52C518.535 245.344 519.115 245.643 519.291 246.205L565.908 393.017C566.084 393.58 565.785 394.16 565.223 394.336C565.135 394.371 565.012 394.388 564.907 394.388Z" fill="#0292FF"/>
<path d="M467.348 344.555C466.908 344.555 466.487 344.274 466.346 343.816C466.17 343.254 466.469 342.674 467.031 342.498L615.567 295.336C616.129 295.16 616.709 295.459 616.885 296.022C617.061 296.584 616.762 297.164 616.2 297.34L467.664 344.502C467.559 344.537 467.453 344.555 467.348 344.555Z" fill="#0292FF"/>
<path d="M541.615 247.893C538.364 247.893 535.727 245.256 535.727 242.004C535.727 238.752 538.364 236.115 541.615 236.115C544.867 236.115 547.504 238.752 547.504 242.004C547.504 245.256 544.85 247.893 541.615 247.893ZM541.615 238.225C539.524 238.225 537.836 239.912 537.836 242.004C537.836 244.096 539.524 245.783 541.615 245.783C543.707 245.783 545.395 244.096 545.395 242.004C545.395 239.912 543.69 238.225 541.615 238.225Z" fill="#0292FF"/>
<path d="M541.615 402.527C538.364 402.527 535.727 399.891 535.727 396.639C535.727 393.387 538.364 390.75 541.615 390.75C544.867 390.75 547.504 393.387 547.504 396.639C547.504 399.891 544.85 402.527 541.615 402.527ZM541.615 392.859C539.524 392.859 537.836 394.547 537.836 396.639C537.836 398.731 539.524 400.418 541.615 400.418C543.707 400.418 545.395 398.731 545.395 396.639C545.395 394.547 543.69 392.859 541.615 392.859Z" fill="#0292FF"/>
<path d="M618.924 325.201C615.672 325.201 613.035 322.565 613.035 319.313C613.035 316.061 615.672 313.424 618.924 313.424C622.176 313.424 624.813 316.061 624.813 319.313C624.813 322.565 622.176 325.201 618.924 325.201ZM618.924 315.551C616.85 315.551 615.145 317.238 615.145 319.33C615.145 321.422 616.832 323.109 618.924 323.109C621.016 323.109 622.703 321.422 622.703 319.33C622.703 317.238 621.016 315.551 618.924 315.551Z" fill="#0292FF"/>
<path d="M464.289 325.201C461.037 325.201 458.401 322.565 458.401 319.313C458.401 316.061 461.037 313.424 464.289 313.424C467.541 313.424 470.178 316.061 470.178 319.313C470.178 322.565 467.541 325.201 464.289 325.201ZM464.289 315.551C462.215 315.551 460.51 317.238 460.51 319.33C460.51 321.422 462.198 323.109 464.289 323.109C466.381 323.109 468.069 321.422 468.069 319.33C468.069 317.238 466.381 315.551 464.289 315.551Z" fill="#0292FF"/>
<path d="M615.075 301.119C612.596 301.119 610.293 299.537 609.485 297.059C608.992 295.565 609.115 293.965 609.819 292.559C610.522 291.152 611.735 290.115 613.229 289.623C616.323 288.604 619.645 290.291 620.665 293.385C621.684 296.479 619.997 299.801 616.903 300.82C616.305 301.031 615.69 301.119 615.075 301.119ZM615.075 291.451C614.688 291.451 614.284 291.504 613.897 291.645C612.93 291.961 612.157 292.629 611.699 293.525C611.242 294.422 611.172 295.442 611.489 296.408C612.139 298.395 614.284 299.467 616.252 298.817C618.239 298.166 619.311 296.022 618.661 294.053C618.151 292.471 616.657 291.451 615.075 291.451Z" fill="#0292FF"/>
<path d="M468.139 349.301C465.661 349.301 463.358 347.719 462.549 345.24C462.057 343.746 462.18 342.147 462.883 340.74C463.586 339.334 464.799 338.297 466.293 337.805C469.37 336.785 472.709 338.473 473.729 341.567C474.221 343.061 474.098 344.66 473.395 346.067C472.692 347.473 471.479 348.51 469.985 349.002C469.37 349.195 468.754 349.301 468.139 349.301ZM468.139 339.633C467.752 339.633 467.348 339.686 466.961 339.826C465.994 340.143 465.221 340.811 464.764 341.707C464.307 342.604 464.237 343.623 464.553 344.59C465.203 346.576 467.348 347.649 469.317 346.998C470.284 346.682 471.057 346.014 471.514 345.117C471.971 344.221 472.042 343.201 471.725 342.235C471.215 340.635 469.721 339.633 468.139 339.633Z" fill="#0292FF"/>
<path d="M615.145 349.107C614.529 349.107 613.914 349.019 613.316 348.809C611.822 348.316 610.61 347.279 609.889 345.891C609.168 344.484 609.045 342.902 609.537 341.391C610.029 339.897 611.067 338.684 612.455 337.963C613.861 337.242 615.443 337.119 616.955 337.611C618.449 338.104 619.662 339.141 620.383 340.529C621.103 341.918 621.226 343.518 620.734 345.029C620.242 346.523 619.205 347.736 617.816 348.457C616.973 348.896 616.059 349.107 615.145 349.107ZM615.145 339.44C614.564 339.44 613.967 339.58 613.44 339.861C612.543 340.318 611.875 341.092 611.559 342.059C611.242 343.025 611.33 344.045 611.787 344.941C612.244 345.838 613.018 346.506 613.984 346.822C614.951 347.139 615.971 347.051 616.867 346.594C617.764 346.137 618.432 345.363 618.748 344.397C619.064 343.43 618.977 342.41 618.52 341.514C618.062 340.617 617.289 339.949 616.322 339.633C615.918 339.492 615.531 339.44 615.145 339.44Z" fill="#0292FF"/>
<path d="M468.086 301.312C467.471 301.312 466.856 301.225 466.258 301.014C464.764 300.521 463.551 299.484 462.83 298.096C462.11 296.707 461.987 295.107 462.479 293.596C462.971 292.102 464.008 290.889 465.397 290.168C466.803 289.447 468.385 289.324 469.896 289.816C471.391 290.309 472.603 291.346 473.324 292.734C474.045 294.123 474.168 295.723 473.676 297.234C473.183 298.728 472.146 299.941 470.758 300.662C469.914 301.102 469 301.312 468.086 301.312ZM468.068 291.645C467.488 291.645 466.891 291.785 466.363 292.066C465.467 292.524 464.799 293.297 464.483 294.264C464.166 295.231 464.254 296.25 464.711 297.146C465.168 298.043 465.942 298.711 466.908 299.027C467.875 299.344 468.895 299.256 469.791 298.799C470.687 298.342 471.355 297.568 471.672 296.602C471.988 295.635 471.9 294.615 471.443 293.719C470.986 292.822 470.213 292.154 469.246 291.838C468.859 291.715 468.473 291.645 468.068 291.645Z" fill="#0292FF"/>
<path d="M604.422 280.113C604.106 280.113 603.772 280.096 603.455 280.043C601.908 279.797 600.537 278.953 599.623 277.67C598.709 276.387 598.34 274.84 598.604 273.276C598.85 271.729 599.694 270.358 600.977 269.443C602.26 268.529 603.807 268.16 605.371 268.424C606.918 268.67 608.289 269.514 609.203 270.797C610.117 272.08 610.486 273.627 610.223 275.192C609.977 276.738 609.133 278.109 607.85 279.024C606.83 279.727 605.653 280.113 604.422 280.113ZM604.404 270.445C603.613 270.445 602.858 270.692 602.207 271.149C601.381 271.729 600.854 272.608 600.678 273.61C600.52 274.611 600.748 275.613 601.346 276.422C601.926 277.248 602.805 277.776 603.807 277.951C604.809 278.109 605.811 277.881 606.619 277.283C607.445 276.703 607.973 275.824 608.149 274.822C608.307 273.82 608.078 272.818 607.481 272.01C606.901 271.184 606.022 270.656 605.02 270.481C604.809 270.463 604.615 270.445 604.404 270.445Z" fill="#0292FF"/>
<path d="M478.809 370.307C476.981 370.307 475.17 369.463 474.028 367.863C473.114 366.58 472.744 365.033 473.008 363.469C473.254 361.922 474.098 360.551 475.381 359.637C476.664 358.723 478.211 358.354 479.776 358.617C481.323 358.863 482.694 359.707 483.608 360.99C485.506 363.627 484.891 367.318 482.254 369.199C481.2 369.955 480.004 370.307 478.809 370.307ZM478.809 360.639C478.018 360.639 477.262 360.885 476.612 361.342C475.785 361.922 475.258 362.801 475.082 363.803C474.924 364.805 475.153 365.807 475.75 366.615C476.963 368.303 479.336 368.69 481.024 367.477C481.85 366.897 482.377 366.018 482.553 365.016C482.711 364.014 482.483 363.012 481.885 362.203C481.305 361.377 480.426 360.85 479.424 360.674C479.213 360.656 479.002 360.639 478.809 360.639Z" fill="#0292FF"/>
<path d="M586.932 262.588C585.701 262.588 584.506 262.201 583.486 261.463C582.221 260.549 581.377 259.178 581.131 257.631C580.885 256.084 581.254 254.52 582.168 253.254C584.066 250.617 587.758 250.037 590.394 251.936C591.66 252.85 592.504 254.221 592.75 255.768C592.996 257.314 592.627 258.879 591.713 260.144C590.799 261.41 589.428 262.254 587.881 262.5C587.564 262.553 587.248 262.588 586.932 262.588ZM586.949 252.92C586.756 252.92 586.545 252.938 586.352 252.973C585.35 253.131 584.488 253.676 583.891 254.484C583.293 255.293 583.065 256.295 583.223 257.297C583.381 258.299 583.926 259.16 584.734 259.758C585.543 260.355 586.545 260.584 587.547 260.426C588.549 260.268 589.41 259.723 590.008 258.914C590.605 258.105 590.834 257.104 590.676 256.102C590.518 255.1 589.973 254.238 589.164 253.641C588.514 253.166 587.74 252.92 586.949 252.92Z" fill="#0292FF"/>
<path d="M496.264 387.85C495.033 387.85 493.838 387.463 492.818 386.725C491.553 385.811 490.709 384.439 490.463 382.893C490.217 381.346 490.586 379.781 491.5 378.516C492.414 377.25 493.785 376.406 495.332 376.16C496.879 375.914 498.443 376.283 499.709 377.197C502.346 379.096 502.926 382.787 501.027 385.424C500.113 386.689 498.742 387.533 497.195 387.779C496.897 387.814 496.58 387.85 496.264 387.85ZM496.281 378.182C496.088 378.182 495.877 378.199 495.684 378.234C494.682 378.393 493.82 378.938 493.223 379.746C492.625 380.572 492.397 381.557 492.555 382.559C492.713 383.561 493.258 384.422 494.067 385.019C494.875 385.617 495.877 385.846 496.879 385.687C497.881 385.529 498.742 384.984 499.34 384.176C500.553 382.488 500.184 380.115 498.496 378.902C497.846 378.428 497.072 378.182 496.281 378.182Z" fill="#0292FF"/>
<path d="M565.592 251.707C564.977 251.707 564.362 251.602 563.764 251.408C560.67 250.406 558.983 247.066 559.985 243.99C560.987 240.897 564.327 239.209 567.403 240.211C568.897 240.703 570.11 241.74 570.831 243.147C571.551 244.553 571.674 246.152 571.182 247.647C570.69 249.141 569.653 250.354 568.247 251.074C567.403 251.496 566.506 251.707 565.592 251.707ZM565.575 242.039C563.975 242.039 562.498 243.059 561.989 244.641C561.338 246.627 562.428 248.754 564.414 249.404C565.381 249.721 566.401 249.633 567.297 249.176C568.194 248.719 568.862 247.945 569.178 246.979C569.495 246.012 569.407 244.992 568.95 244.096C568.493 243.199 567.719 242.531 566.752 242.215C566.366 242.092 565.961 242.039 565.575 242.039Z" fill="#0292FF"/>
<path d="M517.639 398.713C517.041 398.713 516.426 398.625 515.811 398.414C512.717 397.412 511.029 394.072 512.031 390.996C512.524 389.502 513.561 388.289 514.967 387.568C516.373 386.848 517.973 386.725 519.467 387.217C520.961 387.709 522.174 388.746 522.895 390.152C523.616 391.559 523.739 393.158 523.247 394.652C522.42 397.131 520.118 398.713 517.639 398.713ZM517.639 389.045C516.039 389.045 514.563 390.065 514.053 391.647C513.403 393.633 514.492 395.76 516.479 396.41C518.465 397.06 520.592 395.971 521.243 393.984C521.559 393.018 521.471 391.998 521.014 391.102C520.557 390.205 519.784 389.537 518.817 389.221C518.43 389.115 518.026 389.045 517.639 389.045Z" fill="#0292FF"/>
<path d="M517.674 251.689C515.196 251.689 512.875 250.107 512.067 247.629C511.574 246.135 511.697 244.535 512.418 243.129C513.139 241.723 514.352 240.686 515.846 240.193C518.94 239.192 522.262 240.879 523.264 243.973C524.266 247.066 522.579 250.389 519.485 251.391C518.905 251.602 518.289 251.689 517.674 251.689ZM517.674 242.022C517.287 242.022 516.901 242.074 516.514 242.215C515.547 242.531 514.774 243.199 514.317 244.096C513.86 244.992 513.772 246.012 514.088 246.979C514.739 248.965 516.866 250.037 518.852 249.404C520.838 248.754 521.928 246.627 521.278 244.641C520.75 243.041 519.274 242.022 517.674 242.022Z" fill="#0292FF"/>
<path d="M565.539 398.731C563.061 398.731 560.74 397.149 559.932 394.67C558.93 391.576 560.617 388.254 563.711 387.252C566.805 386.25 570.127 387.938 571.129 391.031C572.131 394.125 570.444 397.447 567.35 398.449C566.752 398.643 566.155 398.731 565.539 398.731ZM565.539 389.063C565.153 389.063 564.766 389.115 564.379 389.256C562.393 389.906 561.303 392.033 561.953 394.02C562.604 396.006 564.731 397.078 566.717 396.445C568.703 395.795 569.793 393.668 569.143 391.682C568.615 390.082 567.121 389.063 565.539 389.063Z" fill="#0292FF"/>
<path d="M496.264 262.588C494.436 262.588 492.643 261.744 491.483 260.162C490.569 258.896 490.182 257.332 490.445 255.785C490.692 254.238 491.535 252.867 492.801 251.953C495.438 250.055 499.112 250.635 501.028 253.272C502.926 255.908 502.346 259.582 499.709 261.498C498.672 262.219 497.459 262.588 496.264 262.588ZM496.246 252.92C495.455 252.92 494.682 253.166 494.031 253.641C493.223 254.238 492.678 255.1 492.52 256.102C492.362 257.104 492.59 258.088 493.188 258.914C494.418 260.602 496.774 260.971 498.461 259.758C500.149 258.527 500.518 256.172 499.305 254.484C498.707 253.676 497.846 253.131 496.844 252.973C496.651 252.938 496.457 252.92 496.246 252.92Z" fill="#0292FF"/>
<path d="M586.967 387.832C585.139 387.832 583.346 386.988 582.186 385.406C581.272 384.141 580.885 382.576 581.149 381.029C581.412 379.482 582.238 378.111 583.504 377.197C584.77 376.283 586.334 375.897 587.881 376.16C589.428 376.406 590.799 377.25 591.713 378.516C593.612 381.152 593.032 384.826 590.395 386.742C589.375 387.463 588.162 387.832 586.967 387.832ZM586.95 378.164C586.159 378.164 585.385 378.41 584.735 378.885C583.926 379.483 583.381 380.344 583.223 381.346C583.065 382.348 583.293 383.35 583.891 384.158C585.121 385.846 587.477 386.215 589.164 385.002C589.973 384.404 590.518 383.543 590.676 382.541C590.834 381.539 590.606 380.537 590.008 379.729C589.411 378.92 588.549 378.375 587.547 378.217C587.354 378.182 587.16 378.164 586.95 378.164Z" fill="#0292FF"/>
<path d="M478.791 280.131C477.596 280.131 476.401 279.78 475.363 279.024C474.08 278.11 473.237 276.756 472.99 275.192C472.744 273.627 473.096 272.08 474.01 270.797C474.924 269.514 476.277 268.67 477.842 268.424C479.389 268.178 480.953 268.529 482.236 269.444C483.519 270.358 484.363 271.711 484.609 273.276C484.873 274.822 484.504 276.387 483.59 277.67C482.43 279.287 480.619 280.131 478.791 280.131ZM478.791 270.463C478.58 270.463 478.369 270.481 478.176 270.516C477.174 270.674 476.313 271.219 475.715 272.045C475.117 272.871 474.889 273.873 475.065 274.858C475.223 275.86 475.768 276.721 476.594 277.319C478.281 278.531 480.654 278.145 481.867 276.457C482.447 275.631 482.693 274.629 482.518 273.645C482.359 272.643 481.814 271.781 480.988 271.184C480.338 270.709 479.582 270.463 478.791 270.463Z" fill="#0292FF"/>
<path d="M604.422 370.289C603.227 370.289 602.032 369.938 600.994 369.182C599.711 368.268 598.867 366.914 598.621 365.35C598.358 363.803 598.727 362.238 599.641 360.955C600.555 359.672 601.908 358.828 603.473 358.582C605.02 358.318 606.584 358.688 607.868 359.602C610.504 361.5 611.12 365.174 609.221 367.811C608.061 369.428 606.25 370.289 604.422 370.289ZM604.44 360.621C604.229 360.621 604.018 360.639 603.825 360.674C602.823 360.832 601.961 361.377 601.364 362.203C600.783 363.029 600.537 364.031 600.713 365.016C600.889 366 601.416 366.879 602.242 367.477C603.93 368.69 606.303 368.303 607.516 366.615C608.729 364.928 608.342 362.555 606.655 361.342C605.987 360.867 605.213 360.621 604.44 360.621Z" fill="#0292FF"/>
<path d="M547.434 410.227H536.113C535.533 410.227 535.059 409.752 535.059 409.172V353.748L494.418 407.502C494.225 407.766 493.908 407.924 493.574 407.924L484.451 407.977C484.047 407.977 483.678 407.748 483.502 407.397C483.326 407.027 483.362 406.606 483.608 406.289L535.041 339.193V313.16C535.041 312.58 535.516 312.106 536.096 312.106H547.416C547.996 312.106 548.471 312.58 548.471 313.16V342.815L594.701 404.373C594.947 404.69 594.983 405.111 594.807 405.463C594.631 405.815 594.279 406.043 593.875 406.061L586.018 406.236C585.684 406.236 585.35 406.096 585.156 405.815L548.471 357.299V409.19C548.488 409.752 548.031 410.227 547.434 410.227ZM537.168 408.117H546.379V354.135C546.379 353.678 546.66 353.274 547.1 353.133C547.522 352.992 547.996 353.133 548.278 353.502L586.528 404.092L591.801 403.969L546.59 343.764C546.449 343.588 546.379 343.359 546.379 343.131V314.18H537.168V339.51C537.168 339.738 537.098 339.967 536.957 340.16L486.614 405.832L493.065 405.797L535.27 349.969C535.551 349.6 536.008 349.459 536.447 349.6C536.869 349.74 537.168 350.145 537.168 350.602V408.117Z" fill="#0292FF"/>
<path d="M541.616 383.49C533.037 383.49 524.705 381.803 516.865 378.498C509.289 375.299 502.504 370.711 496.651 364.875C490.797 359.039 486.227 352.236 483.028 344.66C479.705 336.82 478.035 328.488 478.035 319.91C478.035 311.332 479.723 303 483.028 295.16C486.227 287.584 490.815 280.799 496.651 274.945C502.487 269.092 509.289 264.522 516.865 261.322C524.705 258 533.037 256.33 541.616 256.33C550.194 256.33 558.526 258.018 566.365 261.322C573.942 264.522 580.727 269.109 586.58 274.945C592.434 280.781 597.004 287.584 600.203 295.16C603.526 303 605.196 311.332 605.196 319.91C605.196 328.488 603.508 336.82 600.203 344.66C597.004 352.236 592.416 359.022 586.58 364.875C580.744 370.729 573.942 375.299 566.365 378.498C558.508 381.82 550.194 383.49 541.616 383.49ZM541.616 258.457C525.198 258.457 509.764 264.856 498.162 276.457C486.561 288.059 480.162 303.492 480.162 319.91C480.162 336.328 486.561 351.762 498.162 363.363C509.764 374.965 525.198 381.363 541.616 381.363C558.033 381.363 573.467 374.965 585.069 363.363C596.67 351.762 603.069 336.328 603.069 319.91C603.069 303.492 596.67 288.059 585.069 276.457C573.467 264.856 558.033 258.457 541.616 258.457Z" fill="#0292FF"/>
<path d="M541.616 397.992C531.069 397.992 520.856 395.936 511.223 391.858C501.924 387.92 493.574 382.295 486.403 375.123C479.231 367.951 473.606 359.602 469.668 350.303C465.59 340.67 463.533 330.457 463.533 319.91C463.533 309.363 465.59 299.151 469.668 289.518C473.606 280.219 479.231 271.869 486.403 264.697C493.574 257.525 501.924 251.9 511.223 247.963C520.856 243.885 531.069 241.828 541.616 241.828C552.162 241.828 562.375 243.885 572.008 247.963C581.307 251.9 589.657 257.525 596.828 264.697C604 271.869 609.625 280.219 613.563 289.518C617.641 299.151 619.698 309.363 619.698 319.91C619.698 330.457 617.641 340.67 613.563 350.303C609.625 359.602 604 367.951 596.828 375.123C589.657 382.295 581.307 387.92 572.008 391.858C562.375 395.936 552.145 397.992 541.616 397.992ZM541.616 243.973C531.367 243.973 521.418 245.977 512.049 249.949C502.996 253.781 494.875 259.248 487.897 266.227C480.918 273.205 475.451 281.326 471.619 290.379C467.664 299.748 465.643 309.697 465.643 319.945C465.643 330.193 467.647 340.143 471.619 349.512C475.451 358.565 480.918 366.686 487.897 373.664C494.875 380.643 502.996 386.109 512.049 389.942C521.418 393.897 531.367 395.918 541.616 395.918C551.864 395.918 561.813 393.914 571.182 389.942C580.235 386.109 588.356 380.643 595.334 373.664C602.313 366.686 607.78 358.565 611.612 349.512C615.567 340.143 617.588 330.193 617.588 319.945C617.588 309.697 615.584 299.748 611.612 290.379C607.78 281.326 602.313 273.205 595.334 266.227C588.356 259.248 580.235 253.781 571.182 249.949C561.813 245.977 551.864 243.973 541.616 243.973Z" fill="#0292FF"/>
<path d="M363.901 297.656C363.778 297.656 363.655 297.639 363.549 297.604L353.389 294.018C352.897 293.842 352.615 293.35 352.703 292.84C352.791 292.33 353.231 291.961 353.74 291.961H444.039C444.549 291.961 445.006 292.33 445.077 292.84C445.164 293.35 444.866 293.842 444.373 294.018L433.95 297.463C433.844 297.498 433.739 297.516 433.616 297.516L363.901 297.656ZM359.893 294.053L364.094 295.529L433.457 295.389L437.5 294.053H359.893Z" fill="#0292FF"/>
<path d="M433.809 314.057H363.988C363.408 314.057 362.934 313.582 362.934 313.002V296.426C362.934 295.846 363.408 295.371 363.988 295.371H433.809C434.389 295.371 434.863 295.846 434.863 296.426V313.002C434.863 313.6 434.389 314.057 433.809 314.057ZM365.043 311.947H432.754V297.481H365.043V311.947Z" fill="#0292FF"/>
<path d="M442.141 291.557H355.656C355.094 291.557 354.637 291.117 354.602 290.555C354.567 289.992 354.988 289.5 355.551 289.447C355.586 289.447 359.611 289.043 364.744 286.986C369.455 285.106 376.135 281.414 381.145 274.488C391.076 260.742 394.68 256.172 398.652 255.803C398.74 255.785 398.811 255.785 398.898 255.785C398.986 255.785 399.074 255.785 399.145 255.803C403.1 256.19 406.721 260.76 416.635 274.488C421.627 281.414 428.307 285.106 433.035 286.986C438.185 289.043 442.193 289.447 442.228 289.447C442.791 289.5 443.213 289.992 443.178 290.555C443.16 291.117 442.703 291.557 442.141 291.557ZM364.235 289.447H433.545C433.141 289.307 432.736 289.149 432.314 288.99C427.322 287.004 420.238 283.102 414.93 275.736C405.279 262.377 401.799 258.158 398.898 257.912C395.998 258.158 392.5 262.395 382.867 275.736C377.559 283.102 370.475 287.004 365.483 288.99C365.043 289.149 364.639 289.307 364.235 289.447Z" fill="#0292FF"/>
<path d="M402.783 259.301H394.996C394.416 259.301 393.942 258.826 393.942 258.246V253.922C393.942 253.342 394.416 252.867 394.996 252.867H402.783C403.364 252.867 403.838 253.342 403.838 253.922V258.246C403.838 258.826 403.381 259.301 402.783 259.301ZM396.051 257.192H401.729V254.977H396.051V257.192Z" fill="#0292FF"/>
<path d="M400.34 256.084H397.457C396.877 256.084 396.403 255.609 396.403 255.029V247.33C396.403 246.75 396.877 246.276 397.457 246.276H400.34C400.92 246.276 401.395 246.75 401.395 247.33V255.029C401.395 255.609 400.92 256.084 400.34 256.084ZM398.512 253.975H399.285V248.385H398.512V253.975Z" fill="#0292FF"/>
<path d="M398.899 249.44C395.875 249.44 393.414 246.979 393.414 243.955C393.414 240.932 395.875 238.471 398.899 238.471C401.922 238.471 404.383 240.932 404.383 243.955C404.383 246.979 401.922 249.44 398.899 249.44ZM398.899 240.598C397.035 240.598 395.524 242.109 395.524 243.973C395.524 245.836 397.035 247.348 398.899 247.348C400.762 247.348 402.274 245.836 402.274 243.973C402.256 242.109 400.762 240.598 398.899 240.598Z" fill="#0292FF"/>
<path d="M455.993 324.252H339.449C338.94 324.252 338.518 323.901 338.412 323.408C338.307 322.916 338.57 322.424 339.045 322.231L363.602 312.035C363.725 311.983 363.865 311.947 364.006 311.947H433.827C433.985 311.947 434.125 311.983 434.266 312.035L456.45 322.231C456.907 322.442 457.153 322.934 457.047 323.408C456.907 323.918 456.485 324.252 455.993 324.252ZM344.723 322.143H451.159L433.563 314.057H364.182L344.723 322.143Z" fill="#0292FF"/>
<path d="M446.395 331.776H350.84C350.699 331.776 350.559 331.74 350.418 331.688L339.01 326.731C338.553 326.537 338.289 326.045 338.395 325.553C338.5 325.061 338.922 324.709 339.432 324.709H456.027C456.52 324.709 456.941 325.043 457.047 325.518C457.17 325.992 456.941 326.485 456.502 326.695L446.852 331.652C446.729 331.723 446.553 331.776 446.395 331.776ZM351.051 329.666H446.131L451.686 326.818H344.512L351.051 329.666Z" fill="#0292FF"/>
<path d="M446.553 349.266H350.77C350.19 349.266 349.715 348.791 349.715 348.211V330.317C349.715 329.736 350.19 329.262 350.77 329.262H446.553C447.133 329.262 447.608 329.736 447.608 330.317V348.211C447.608 348.791 447.151 349.266 446.553 349.266ZM351.842 347.156H445.516V331.371H351.842V347.156Z" fill="#0292FF"/>
<path d="M361.123 346.19H355.393C354.813 346.19 354.338 345.715 354.338 345.135V334.359C354.338 333.779 354.813 333.305 355.393 333.305H361.123C361.703 333.305 362.178 333.779 362.178 334.359V345.135C362.178 345.715 361.703 346.19 361.123 346.19ZM356.447 344.08H360.069V335.414H356.447V344.08Z" fill="#0292FF"/>
<path d="M371.266 346.19H365.553C364.973 346.19 364.498 345.715 364.498 345.135V334.359C364.498 333.779 364.973 333.305 365.553 333.305H371.266C371.846 333.305 372.32 333.779 372.32 334.359V345.135C372.32 345.715 371.846 346.19 371.266 346.19ZM366.608 344.08H370.211V335.414H366.608V344.08Z" fill="#0292FF"/>
<path d="M381.426 346.19H375.713C375.133 346.19 374.658 345.715 374.658 345.135V334.359C374.658 333.779 375.133 333.305 375.713 333.305H381.426C382.006 333.305 382.481 333.779 382.481 334.359V345.135C382.481 345.715 382.006 346.19 381.426 346.19ZM376.75 344.08H380.354V335.414H376.75V344.08Z" fill="#0292FF"/>
<path d="M391.569 346.19H385.856C385.276 346.19 384.801 345.715 384.801 345.135V334.359C384.801 333.779 385.276 333.305 385.856 333.305H391.569C392.149 333.305 392.623 333.779 392.623 334.359V345.135C392.623 345.715 392.149 346.19 391.569 346.19ZM386.91 344.08H390.514V335.414H386.91V344.08Z" fill="#0292FF"/>
<path d="M401.729 346.19H396.016C395.436 346.19 394.961 345.715 394.961 345.135V334.359C394.961 333.779 395.436 333.305 396.016 333.305H401.729C402.309 333.305 402.783 333.779 402.783 334.359V345.135C402.783 345.715 402.309 346.19 401.729 346.19ZM397.053 344.08H400.656V335.414H397.053V344.08Z" fill="#0292FF"/>
<path d="M411.871 346.19H406.158C405.578 346.19 405.104 345.715 405.104 345.135V334.359C405.104 333.779 405.578 333.305 406.158 333.305H411.871C412.451 333.305 412.926 333.779 412.926 334.359V345.135C412.926 345.715 412.451 346.19 411.871 346.19ZM407.213 344.08H410.817V335.414H407.213V344.08Z" fill="#0292FF"/>
<path d="M422.031 346.19H416.319C415.739 346.19 415.264 345.715 415.264 345.135V334.359C415.264 333.779 415.739 333.305 416.319 333.305H422.031C422.612 333.305 423.086 333.779 423.086 334.359V345.135C423.086 345.715 422.612 346.19 422.031 346.19ZM417.356 344.08H420.959V335.414H417.356V344.08Z" fill="#0292FF"/>
<path d="M432.174 346.19H426.461C425.881 346.19 425.406 345.715 425.406 345.135V334.359C425.406 333.779 425.881 333.305 426.461 333.305H432.192C432.772 333.305 433.246 333.779 433.246 334.359V345.135C433.229 345.715 432.754 346.19 432.174 346.19ZM427.516 344.08H431.137V335.414H427.516V344.08Z" fill="#0292FF"/>
<path d="M442.334 346.19H436.604C436.024 346.19 435.549 345.715 435.549 345.135V334.359C435.549 333.779 436.024 333.305 436.604 333.305H442.334C442.914 333.305 443.389 333.779 443.389 334.359V345.135C443.389 345.715 442.914 346.19 442.334 346.19ZM437.658 344.08H441.279V335.414H437.658V344.08Z" fill="#0292FF"/>
<path d="M468.877 361.764H325.598C325.106 361.764 324.684 361.43 324.578 360.955C324.473 360.481 324.701 359.988 325.141 359.777L350.33 347.279C350.471 347.209 350.629 347.174 350.805 347.174H446.588C446.764 347.174 446.94 347.227 447.098 347.315L469.405 359.813C469.827 360.041 470.038 360.533 469.915 361.008C469.792 361.483 469.352 361.764 468.877 361.764ZM330.08 359.654H464.835L446.29 349.266H351.033L330.08 359.654Z" fill="#0292FF"/>
<path d="M453.285 371.186H341.928C341.787 371.186 341.664 371.168 341.541 371.115L325.194 364.576C324.719 364.383 324.455 363.891 324.543 363.399C324.631 362.906 325.071 362.537 325.58 362.537H468.859C469.369 362.537 469.791 362.889 469.896 363.381C470.002 363.873 469.738 364.365 469.264 364.559L453.689 371.098C453.566 371.151 453.426 371.186 453.285 371.186ZM342.139 369.076H453.074L463.621 364.647H331.047L342.139 369.076Z" fill="#0292FF"/>
<path d="M453.285 401.965H341.928C341.348 401.965 340.873 401.49 340.873 400.91V370.131C340.873 369.551 341.348 369.076 341.928 369.076H453.285C453.865 369.076 454.34 369.551 454.34 370.131V400.91C454.34 401.49 453.883 401.965 453.285 401.965ZM342.983 399.856H452.231V371.186H342.983V399.856Z" fill="#0292FF"/>
<path d="M361.545 401.965H349.434C348.854 401.965 348.379 401.49 348.379 400.91V386.865C348.379 382.998 351.526 379.852 355.393 379.852H355.586C359.453 379.852 362.6 382.998 362.6 386.865V400.91C362.6 401.49 362.143 401.965 361.545 401.965ZM350.489 399.856H360.49V386.865C360.49 384.158 358.293 381.961 355.586 381.961H355.393C352.686 381.961 350.489 384.158 350.489 386.865V399.856Z" fill="#0292FF"/>
<path d="M382.709 401.965H370.598C370.018 401.965 369.543 401.49 369.543 400.91V386.865C369.543 382.998 372.69 379.852 376.557 379.852H376.75C380.617 379.852 383.764 382.998 383.764 386.865V400.91C383.764 401.49 383.289 401.965 382.709 401.965ZM371.653 399.856H381.654V386.865C381.654 384.158 379.457 381.961 376.75 381.961H376.557C373.85 381.961 371.653 384.158 371.653 386.865V399.856Z" fill="#0292FF"/>
<path d="M403.873 401.965H391.762C391.182 401.965 390.707 401.49 390.707 400.91V386.865C390.707 382.998 393.854 379.852 397.721 379.852H397.914C401.782 379.852 404.928 382.998 404.928 386.865V400.91C404.928 401.49 404.453 401.965 403.873 401.965ZM392.799 399.856H402.801V386.865C402.801 384.158 400.604 381.961 397.897 381.961H397.703C394.996 381.961 392.799 384.158 392.799 386.865V399.856Z" fill="#0292FF"/>
<path d="M425.02 401.965H412.908C412.328 401.965 411.854 401.49 411.854 400.91V386.865C411.854 382.998 415 379.852 418.867 379.852H419.061C422.928 379.852 426.074 382.998 426.074 386.865V400.91C426.074 401.49 425.6 401.965 425.02 401.965ZM413.963 399.856H423.965V386.865C423.965 384.158 421.768 381.961 419.061 381.961H418.867C416.16 381.961 413.963 384.158 413.963 386.865V399.856Z" fill="#0292FF"/>
<path d="M446.184 401.965H434.073C433.492 401.965 433.018 401.49 433.018 400.91V386.865C433.018 382.998 436.164 379.852 440.032 379.852H440.225C444.092 379.852 447.239 382.998 447.239 386.865V400.91C447.239 401.49 446.764 401.965 446.184 401.965ZM435.11 399.856H445.112V386.865C445.112 384.158 442.914 381.961 440.207 381.961H440.014C437.307 381.961 435.11 384.158 435.11 386.865V399.856Z" fill="#0292FF"/>
<path d="M459.069 410.227H335.987C335.406 410.227 334.932 409.752 334.932 409.172V400.91C334.932 400.33 335.406 399.856 335.987 399.856H459.069C459.649 399.856 460.123 400.33 460.123 400.91V409.172C460.123 409.752 459.649 410.227 459.069 410.227ZM337.024 408.117H457.996V401.965H337.024V408.117Z" fill="#0292FF"/>
<path d="M468.877 364.647H325.598C325.018 364.647 324.543 364.172 324.543 363.592V360.709C324.543 360.129 325.018 359.654 325.598 359.654H468.877C469.457 359.654 469.932 360.129 469.932 360.709V363.592C469.932 364.172 469.457 364.647 468.877 364.647ZM326.635 362.537H467.805V361.764H326.635V362.537Z" fill="#0292FF"/>
<path d="M444.039 294.633H353.74C353.16 294.633 352.686 294.158 352.686 293.578V290.115C352.686 289.535 353.16 289.061 353.74 289.061H444.039C444.619 289.061 445.094 289.535 445.094 290.115V293.578C445.094 294.158 444.619 294.633 444.039 294.633ZM354.795 292.524H442.985V291.17H354.795V292.524Z" fill="#0292FF"/>
<path d="M408.303 311.367H389.477C388.897 311.367 388.422 310.893 388.422 310.313V292.348C388.422 291.768 388.897 291.293 389.477 291.293H408.303C408.883 291.293 409.358 291.768 409.358 292.348V310.313C409.358 310.893 408.883 311.367 408.303 311.367ZM390.531 309.258H407.248V293.402H390.531V309.258Z" fill="#0292FF"/>
<path d="M456.028 326.801H339.432C338.852 326.801 338.377 326.326 338.377 325.746V323.197C338.377 322.617 338.852 322.143 339.432 322.143H456.028C456.608 322.143 457.082 322.617 457.082 323.197V325.746C457.082 326.326 456.608 326.801 456.028 326.801ZM340.487 324.692H454.973V324.252H340.487V324.692Z" fill="#0292FF"/>
<path d="M706.481 408.064H633.795C633.215 408.064 632.74 407.607 632.74 407.027L629.137 160.916C629.137 160.511 629.348 160.142 629.699 159.967C630.051 159.791 630.473 159.808 630.807 160.054C631.106 160.265 638.207 165.451 647.436 175.857C655.856 185.349 667.651 201.099 676.246 222.457H684.174C684.526 222.457 684.842 222.615 685.035 222.896C685.193 223.107 688.779 228.24 693.649 237.521C698.149 246.082 704.6 259.898 709.82 277.177C715.691 296.601 718.856 316.324 719.225 335.818C719.682 360.199 715.727 384.263 707.465 407.378C707.324 407.783 706.92 408.064 706.481 408.064ZM634.832 405.955H705.725C713.723 383.314 717.555 359.724 717.115 335.853C716.764 316.552 713.635 297.005 707.799 277.775C698.693 247.681 685.756 227.73 683.611 224.549H675.526C675.086 224.549 674.699 224.285 674.541 223.881C666.051 202.488 654.291 186.738 645.906 177.281C639.438 169.986 633.936 165.222 631.282 163.06L634.832 405.955Z" fill="#0292FF"/>
<path d="M664.733 223.125H638.823C638.242 223.125 637.768 222.65 637.768 222.07V176.737C637.768 176.297 638.031 175.911 638.453 175.752C638.858 175.594 639.332 175.717 639.614 176.034C652.34 190.272 658.774 201.944 661.921 209.238C665.366 217.219 665.77 221.789 665.788 221.982C665.805 222.281 665.718 222.563 665.507 222.773C665.313 223.002 665.032 223.125 664.733 223.125ZM639.895 221.016H663.52C663.204 219.223 662.307 215.391 659.934 209.942C656.999 203.174 651.163 192.539 639.895 179.532V221.016Z" fill="#0292FF"/>
<path d="M669.778 234.27H638.84C638.26 234.27 637.785 233.795 637.785 233.215V227.818C637.785 227.238 638.26 226.764 638.84 226.764H669.778C670.358 226.764 670.832 227.238 670.832 227.818V233.215C670.832 233.795 670.358 234.27 669.778 234.27ZM639.895 232.16H668.723V228.873H639.895V232.16Z" fill="#0292FF"/>
<path d="M674.453 243.99H638.823C638.242 243.99 637.768 243.516 637.768 242.936V237.539C637.768 236.959 638.242 236.484 638.823 236.484H674.453C675.033 236.484 675.508 236.959 675.508 237.539V242.936C675.508 243.516 675.033 243.99 674.453 243.99ZM639.895 241.881H673.416V238.594H639.895V241.881Z" fill="#0292FF"/>
<path d="M678.584 253.711H638.823C638.242 253.711 637.768 253.236 637.768 252.656V247.26C637.768 246.68 638.242 246.205 638.823 246.205H678.584C679.164 246.205 679.639 246.68 679.639 247.26V252.656C679.639 253.236 679.182 253.711 678.584 253.711ZM639.895 251.601H677.547V248.314H639.895V251.601Z" fill="#0292FF"/>
<path d="M680.571 263.414H638.823C638.242 263.414 637.768 262.939 637.768 262.359V256.963C637.768 256.383 638.242 255.908 638.823 255.908H680.571C681.151 255.908 681.625 256.383 681.625 256.963V262.359C681.625 262.939 681.151 263.414 680.571 263.414ZM639.895 261.305H679.533V258.018H639.895V261.305Z" fill="#0292FF"/>
<path d="M681.836 273.135H638.84C638.26 273.135 637.785 272.66 637.785 272.08V266.684C637.785 266.103 638.26 265.629 638.84 265.629H681.836C682.416 265.629 682.891 266.103 682.891 266.684V272.08C682.891 272.66 682.416 273.135 681.836 273.135ZM639.895 271.025H680.781V267.738H639.895V271.025Z" fill="#0292FF"/>
<path d="M686.688 282.855H638.84C638.26 282.855 637.785 282.381 637.785 281.801V276.404C637.785 275.824 638.26 275.35 638.84 275.35H686.688C687.268 275.35 687.742 275.824 687.742 276.404V281.801C687.742 282.381 687.268 282.855 686.688 282.855ZM639.895 280.746H685.633V277.459H639.895V280.746Z" fill="#0292FF"/>
<path d="M686.512 292.559H638.84C638.26 292.559 637.785 292.084 637.785 291.504V286.107C637.785 285.527 638.26 285.053 638.84 285.053H686.512C687.092 285.053 687.567 285.527 687.567 286.107V291.504C687.567 292.084 687.092 292.559 686.512 292.559ZM639.895 290.449H685.457V287.162H639.895V290.449Z" fill="#0292FF"/>
<path d="M689.201 302.279H639.367C638.787 302.279 638.313 301.805 638.313 301.225V295.828C638.313 295.248 638.787 294.773 639.367 294.773H689.201C689.781 294.773 690.256 295.248 690.256 295.828V301.225C690.256 301.805 689.781 302.279 689.201 302.279ZM640.422 300.17H688.147V296.883H640.422V300.17Z" fill="#0292FF"/>
<path d="M689.201 312H638.823C638.242 312 637.768 311.525 637.768 310.945V305.549C637.768 304.969 638.242 304.494 638.823 304.494H689.201C689.782 304.494 690.256 304.969 690.256 305.549V310.945C690.256 311.525 689.782 312 689.201 312ZM639.895 309.891H688.164V306.603H639.895V309.891Z" fill="#0292FF"/>
<path d="M691.539 321.703H638.823C638.242 321.703 637.768 321.228 637.768 320.648V315.252C637.768 314.672 638.242 314.197 638.823 314.197H691.539C692.119 314.197 692.594 314.672 692.594 315.252V320.648C692.594 321.246 692.137 321.703 691.539 321.703ZM639.895 319.594H690.485V316.307H639.877V319.594H639.895Z" fill="#0292FF"/>
<path d="M691.539 331.424H638.823C638.242 331.424 637.768 330.949 637.768 330.369V324.973C637.768 324.393 638.242 323.918 638.823 323.918H691.539C692.119 323.918 692.594 324.393 692.594 324.973V330.369C692.594 330.949 692.137 331.424 691.539 331.424ZM639.895 329.314H690.485V326.027H639.877V329.314H639.895Z" fill="#0292FF"/>
<path d="M691.733 341.145H638.84C638.26 341.145 637.785 340.67 637.785 340.09V334.693C637.785 334.113 638.26 333.639 638.84 333.639H691.733C692.313 333.639 692.787 334.113 692.787 334.693V340.09C692.787 340.67 692.313 341.145 691.733 341.145ZM639.895 339.035H690.678V335.748H639.895V339.035Z" fill="#0292FF"/>
<path d="M691.539 350.848H638.823C638.242 350.848 637.768 350.373 637.768 349.793V344.396C637.768 343.816 638.242 343.342 638.823 343.342H691.539C692.119 343.342 692.594 343.816 692.594 344.396V349.793C692.594 350.391 692.137 350.848 691.539 350.848ZM639.895 348.738H690.485V345.451H639.877V348.738H639.895Z" fill="#0292FF"/>
<path d="M689.201 360.568H638.823C638.242 360.568 637.768 360.094 637.768 359.514V354.117C637.768 353.537 638.242 353.062 638.823 353.062H689.201C689.782 353.062 690.256 353.537 690.256 354.117V359.514C690.256 360.094 689.782 360.568 689.201 360.568ZM639.895 358.459H688.164V355.172H639.895V358.459Z" fill="#0292FF"/>
<path d="M689.201 370.289H638.823C638.242 370.289 637.768 369.814 637.768 369.234V363.838C637.768 363.258 638.242 362.783 638.823 362.783H689.201C689.782 362.783 690.256 363.258 690.256 363.838V369.234C690.256 369.814 689.782 370.289 689.201 370.289ZM639.895 368.18H688.164V364.893H639.895V368.18Z" fill="#0292FF"/>
<path d="M689.026 380.01H638.823C638.242 380.01 637.768 379.535 637.768 378.955V373.559C637.768 372.978 638.242 372.504 638.823 372.504H689.026C689.606 372.504 690.08 372.978 690.08 373.559V378.955C690.08 379.535 689.606 380.01 689.026 380.01ZM639.895 377.9H687.989V374.613H639.895V377.9Z" fill="#0292FF"/>
<path d="M686.688 389.713H638.84C638.26 389.713 637.785 389.238 637.785 388.658V383.262C637.785 382.682 638.26 382.207 638.84 382.207H686.688C687.268 382.207 687.742 382.682 687.742 383.262V388.658C687.742 389.238 687.268 389.713 686.688 389.713ZM639.895 387.603H685.633V384.316H639.895V387.603Z" fill="#0292FF"/>
<path d="M633.795 410.227H626.606C626.026 410.227 625.551 409.752 625.551 409.172V139.312C625.551 138.925 625.762 138.574 626.078 138.398C626.412 138.205 626.817 138.222 627.133 138.416L634.322 142.74C634.638 142.933 634.832 143.267 634.832 143.636V409.189C634.849 409.752 634.375 410.227 633.795 410.227ZM627.66 408.117H632.74V144.216L627.66 141.158V408.117Z" fill="#0292FF"/>
<path d="M1120.45 410.227H-317.445C-318.025 410.227 -318.5 409.752 -318.5 409.172C-318.5 408.592 -318.025 408.117 -317.445 408.117H1120.45C1121.03 408.117 1121.5 408.592 1121.5 409.172C1121.5 409.752 1121.03 410.227 1120.45 410.227Z" fill="#0292FF"/>
</svg>
