<svg xmlns="http://www.w3.org/2000/svg" width="8" height="14" viewBox="0 0 8 14" fill="none">
  <path d="M6 12.333H1.33333C0.966667 12.333 0.652778 12.2025 0.391667 11.9413C0.130556 11.6802 0 11.3663 0 10.9997V3.66634H1.33333V10.9997H6V12.333ZM3.66667 2.99967C3.3 2.99967 2.98611 2.86912 2.725 2.60801C2.46389 2.3469 2.33333 2.03301 2.33333 1.66634C2.33333 1.29967 2.46389 0.985786 2.725 0.724675C2.98611 0.463563 3.3 0.333008 3.66667 0.333008C4.03333 0.333008 4.34722 0.463563 4.60833 0.724675C4.86944 0.985786 5 1.29967 5 1.66634C5 2.03301 4.86944 2.3469 4.60833 2.60801C4.34722 2.86912 4.03333 2.99967 3.66667 2.99967ZM6.66667 13.6663V10.333H3.33333C2.96667 10.333 2.65278 10.2025 2.39167 9.94134C2.13056 9.68023 2 9.36634 2 8.99967V5.33301C2 4.86634 2.16111 4.4719 2.48333 4.14967C2.80556 3.82745 3.2 3.66634 3.66667 3.66634C4.13333 3.66634 4.52778 3.82745 4.85 4.14967C5.17222 4.4719 5.33333 4.86634 5.33333 5.33301V8.33301H6.66667C7.03333 8.33301 7.34722 8.46356 7.60833 8.72468C7.86944 8.98579 8 9.29967 8 9.66634V13.6663H6.66667Z" fill="#DB0011"/>
</svg>