<svg width="14" height="14" viewBox="0 0 14 14" fill="none" xmlns="http://www.w3.org/2000/svg">
<g id="elements">
<circle id="Ellipse 2033" opacity="0.12" cx="7" cy="7" r="6" fill="#B2192C"/>
<path id="Ellipse 439" opacity="0.4" d="M2.79855 3.04487C2.8776 2.96107 2.95908 2.87957 3.04286 2.80049M4.68356 1.70237C4.78728 1.65575 4.89259 1.61202 4.99937 1.57129M1.70321 4.68096C1.65609 4.78568 1.61191 4.89202 1.5708 4.99986" stroke="#B2192C" stroke-width="1.5" stroke-linecap="round" stroke-linejoin="round"/>
<path id="Ellipse 438" d="M1.28564 7.00042C1.28565 10.1563 3.84402 12.7147 6.99993 12.7147C10.1558 12.7147 12.7142 10.1563 12.7142 7.00042C12.7142 3.8445 10.1558 1.28613 6.99993 1.28613" stroke="#B2192C" stroke-linecap="round"/>
<g id="Currency">
<path id="Taka" d="M6.15762 4.40509C6.26342 4.56044 6.35851 4.81089 6.35851 5.18053V6.38053H6.6786L7.21565 6.9283H6.35851V8.48187C6.35851 8.60375 6.40405 8.71357 6.49512 8.81268C6.58619 8.91178 6.73485 8.96134 6.9411 8.96134C7.20762 8.96134 7.48887 8.81268 7.78619 8.51536C8.09021 8.21134 8.25092 7.89928 8.26565 7.57919L8.12905 7.59125C7.64155 7.59125 7.3978 7.33277 7.3978 6.81446C7.3978 6.63902 7.45538 6.48366 7.56922 6.34571C7.68306 6.2091 7.87324 6.13946 8.13976 6.13946C8.42101 6.13946 8.65806 6.26134 8.84824 6.50509C9.04646 6.74884 9.14556 7.04616 9.14556 7.39571C9.14556 7.91402 8.92458 8.40821 8.48262 8.88098C8.04869 9.35241 7.21833 9.58946 6.92905 9.58946C6.46565 9.58946 6.28753 9.49839 6.13619 9.39527C5.98485 9.2908 5.78663 9.04437 5.78663 8.73366V6.9283H5.23887L4.71387 6.38053H5.78797V5.29571C5.78797 5.0533 5.54556 4.92071 5.38753 4.90732C5.2911 4.89928 5.1853 4.92607 5.1478 4.96491C5.07949 4.85107 5.01387 4.71312 4.9536 4.55375C4.9536 4.55375 5.00717 4.36089 5.18262 4.24571C5.30315 4.16669 5.41699 4.14259 5.59378 4.14259C5.92994 4.14125 6.0853 4.29928 6.15762 4.40509Z" fill="#B2192C"/>
</g>
</g>
</svg>
